<svg width="20.000000" height="20.000000" viewBox="0 0 20 20" fill="none" xmlns="http://www.w3.org/2000/svg" xmlns:xlink="http://www.w3.org/1999/xlink">
	<desc>
			Created with Pixso.
	</desc>
	<defs/>
	<path id="Vector" d="M10 0C4.486 0 0 4.48596 0 10C0 15.514 4.486 20 10 20C15.514 20 20 15.514 20 10C20 4.48596 15.514 0 10 0ZM8.001 14.413L4.99545 11.4139C4.6047 11.024 4.60391 10.3912 4.99369 10.0004C5.38371 9.60913 6.01701 9.60852 6.40793 9.99866L7.999 11.587L12.586 7C12.9765 6.6095 13.6095 6.6095 14 7C14.3905 7.3905 14.3905 8.02356 14 8.41394L8.001 14.413Z" fill="#2FAB73" fill-opacity="1.000000" fill-rule="nonzero"/>
</svg>
