<svg width="24.000000" height="24.000000" viewBox="0 0 24 24" fill="none" xmlns="http://www.w3.org/2000/svg" xmlns:xlink="http://www.w3.org/1999/xlink">
	<desc>
			Created with Pixso.
	</desc>
	<defs>
		<clipPath id="clip1_318">
			<rect width="24.000000" height="24.000000" fill="white" fill-opacity="0"/>
		</clipPath>
	</defs>
	<rect width="24.000000" height="24.000000" fill="#FFFFFF" fill-opacity="0"/>
	<g clip-path="url(#clip1_318)">
		<path d="M19 9C19 8.08069 18.8189 7.17053 18.4672 6.32117C18.1154 5.47192 17.5998 4.70032 16.9497 4.05029C16.2997 3.40027 15.5281 2.88464 14.6788 2.53284C13.8295 2.18103 12.9193 2 12 2C11.0807 2 10.1705 2.18103 9.32121 2.53284C8.47194 2.88464 7.70026 3.40027 7.05025 4.05029C6.40025 4.70032 5.88463 5.47192 5.53284 6.32117C5.18106 7.17053 5 8.08069 5 9C5 10.387 5.41 11.677 6.105 12.765L6.097 12.765C8.457 16.46 12 22 12 22L17.903 12.765L17.896 12.765C18.6164 11.6414 18.9995 10.3347 19 9ZM12 12C11.2044 12 10.4413 11.684 9.87868 11.1213C9.31607 10.5587 9 9.79565 9 9C9 8.20435 9.31607 7.44128 9.87868 6.87866C10.4413 6.31604 11.2044 6 12 6C12.7956 6 13.5587 6.31604 14.1213 6.87866C14.6839 7.44128 15 8.20435 15 9C15 9.79565 14.6839 10.5587 14.1213 11.1213C13.5587 11.684 12.7956 12 12 12Z" fill="#F53838" fill-opacity="1.000000" fill-rule="nonzero"/>
	</g>
</svg>
