<svg width="24.000000" height="24.000000" viewBox="0 0 24 24" fill="none" xmlns="http://www.w3.org/2000/svg" xmlns:xlink="http://www.w3.org/1999/xlink">
	<desc>
			Created with Pixso.
	</desc>
	<defs>
		<clipPath id="clip1_329">
			<rect width="24.000000" height="24.000000" fill="white" fill-opacity="0"/>
		</clipPath>
	</defs>
	<rect width="24.000000" height="24.000000" fill="#FFFFFF" fill-opacity="0"/>
	<g clip-path="url(#clip1_329)">
		<path d="M20 3L4 3C3.46957 3 2.96085 3.21069 2.58578 3.58582C2.21072 3.96082 2 4.4696 2 5L2 9C2 9.5304 2.21072 10.0392 2.58578 10.4142C2.96085 10.7893 3.46957 11 4 11L20 11C20.5304 11 21.0392 10.7893 21.4142 10.4142C21.7893 10.0392 22 9.5304 22 9L22 5C22 4.4696 21.7893 3.96082 21.4142 3.58582C21.0392 3.21069 20.5304 3 20 3ZM14 8C13.4477 8 13 7.55225 13 7C13 6.44775 13.4477 6 14 6C14.5523 6 15 6.44775 15 7C15 7.55225 14.5523 8 14 8ZM18 8C17.4477 8 17 7.55225 17 7C17 6.44775 17.4477 6 18 6C18.5523 6 19 6.44775 19 7C19 7.55225 18.5523 8 18 8ZM20 13L4 13C3.46957 13 2.96085 13.2107 2.58578 13.5858C2.21072 13.9608 2 14.4696 2 15L2 19C2 19.5304 2.21072 20.0392 2.58578 20.4142C2.96085 20.7893 3.46957 21 4 21L20 21C20.5304 21 21.0392 20.7893 21.4142 20.4142C21.7893 20.0392 22 19.5304 22 19L22 15C22 14.4696 21.7893 13.9608 21.4142 13.5858C21.0392 13.2107 20.5304 13 20 13ZM14 18C13.4477 18 13 17.5522 13 17C13 16.4478 13.4477 16 14 16C14.5523 16 15 16.4478 15 17C15 17.5522 14.5523 18 14 18ZM18 18C17.4477 18 17 17.5522 17 17C17 16.4478 17.4477 16 18 16C18.5523 16 19 16.4478 19 17C19 17.5522 18.5523 18 18 18Z" fill="#F53838" fill-opacity="1.000000" fill-rule="nonzero"/>
	</g>
</svg>
