<svg width="16.000000" height="16.000000" viewBox="0 0 16 16" fill="none" xmlns="http://www.w3.org/2000/svg" xmlns:xlink="http://www.w3.org/1999/xlink">
	<desc>
			Created with Pixso.
	</desc>
	<defs>
		<clipPath id="clip1_115">
			<rect id="ant-design:star-filled" width="16.000000" height="16.000000" fill="white" fill-opacity="0"/>
		</clipPath>
	</defs>
	<rect id="ant-design:star-filled" width="16.000000" height="16.000000" fill="#FFFFFF" fill-opacity="0"/>
	<g clip-path="url(#clip1_115)">
		<path id="Vector" d="M14.1891 5.51733L10.2219 4.9408L8.44844 1.34546C8.39999 1.24707 8.32031 1.16736 8.22188 1.1189C7.97501 0.99707 7.675 1.09863 7.55156 1.34546L5.77812 4.9408L1.81094 5.51733C1.70157 5.53296 1.60156 5.58459 1.52499 5.66272C1.43243 5.75781 1.38144 5.88586 1.38319 6.01855C1.38495 6.15125 1.43933 6.27783 1.53438 6.37048L4.40469 9.16895L3.72656 13.1205C3.71066 13.2124 3.72083 13.307 3.75592 13.3934C3.79102 13.4799 3.84962 13.5547 3.92511 13.6095C4.00058 13.6643 4.08992 13.6969 4.18297 13.7036C4.27602 13.7102 4.36906 13.6907 4.45157 13.6471L8 11.7815L11.5484 13.6471C11.6453 13.6986 11.7578 13.7158 11.8656 13.697C12.1375 13.6501 12.3203 13.3923 12.2734 13.1205L11.5953 9.16895L14.4656 6.37048C14.5437 6.29395 14.5953 6.19397 14.6109 6.08459C14.6531 5.81116 14.4625 5.55798 14.1891 5.51733Z" fill="#FEA250" fill-opacity="1.000000" fill-rule="nonzero"/>
	</g>
</svg>
