<svg width="24.000000" height="24.000000" viewBox="0 0 24 24" fill="none" xmlns="http://www.w3.org/2000/svg" xmlns:xlink="http://www.w3.org/1999/xlink">
	<desc>
			Created with Pixso.
	</desc>
	<defs>
		<clipPath id="clip1_323">
			<rect width="24.000000" height="24.000000" fill="white" fill-opacity="0"/>
		</clipPath>
	</defs>
	<rect width="24.000000" height="24.000000" fill="#FFFFFF" fill-opacity="0"/>
	<g clip-path="url(#clip1_323)">
		<path d="M12 10.7999C12.9548 10.7999 13.8705 10.4207 14.5456 9.74561C15.2207 9.07043 15.6 8.15479 15.6 7.19995C15.6 6.24524 15.2207 5.32947 14.5456 4.65442C13.8705 3.97925 12.9548 3.59998 12 3.59998C11.0452 3.59998 10.1295 3.97925 9.45441 4.65442C8.7793 5.32947 8.39999 6.24524 8.39999 7.19995C8.39999 8.15479 8.7793 9.07043 9.45441 9.74561C10.1295 10.4207 11.0452 10.7999 12 10.7999ZM6.89868 21.6C5.07687 21.6 3.54224 20.0686 4.23941 18.3854C4.66156 17.3663 5.2803 16.4403 6.0603 15.6603C6.84033 14.8802 7.76633 14.2615 8.78546 13.8394C9.8046 13.4172 10.8969 13.2 12 13.2C13.1031 13.2 14.1954 13.4172 15.2145 13.8394C16.2337 14.2615 17.1597 14.8802 17.9397 15.6603C18.7197 16.4403 19.3385 17.3663 19.7606 18.3854C20.4578 20.0686 18.9231 21.6 17.1013 21.6L6.89868 21.6Z" fill="#F53838" fill-opacity="1.000000" fill-rule="evenodd"/>
	</g>
</svg>
