<svg width="69.599854" height="69.599854" viewBox="0 0 69.5999 69.5999" fill="none" xmlns="http://www.w3.org/2000/svg" xmlns:xlink="http://www.w3.org/1999/xlink">
	<desc>
			Created with Pixso.
	</desc>
	<defs>
		<filter id="filter_1_128_dd" x="0.000000" y="0.000000" width="69.599854" height="69.599854" filterUnits="userSpaceOnUse" color-interpolation-filters="sRGB">
			<feFlood flood-opacity="0" result="BackgroundImageFix"/>
			<feColorMatrix in="SourceAlpha" type="matrix" values="0 0 0 0 0 0 0 0 0 0 0 0 0 0 0 0 0 0 127 0" result="hardAlpha"/>
			<feOffset dx="0" dy="13"/>
			<feGaussianBlur stdDeviation="6"/>
			<feComposite in2="hardAlpha" operator="out" k2="-1" k3="1"/>
			<feColorMatrix type="matrix" values="0 0 0 0 0.066667 0 0 0 0 0.07451 0 0 0 0 0.13725 0 0 0 0.078 0"/>
			<feBlend mode="normal" in2="BackgroundImageFix" result="effect_dropShadow_1"/>
			<feBlend mode="normal" in="SourceGraphic" in2="effect_dropShadow_1" result="shape"/>
		</filter>
	</defs>
	<g filter="url(#filter_1_128_dd)">
		<circle cx="34.799927" cy="21.800049" r="16.799942" fill="#F53838" fill-opacity="1.000000"/>
	</g>
	<path d="M34.7999 5C25.5214 5 17.9999 12.5215 17.9999 21.8C17.9999 31.0786 25.5214 38.6001 34.7999 38.6001C44.0784 38.6001 51.5999 31.0786 51.5999 21.8C51.5999 12.5215 44.0784 5 34.7999 5ZM38.7794 16.6096L36.2542 16.6096C35.9549 16.6096 35.6224 17.0032 35.6224 17.5266L35.6224 19.3501L38.7811 19.3501L38.3034 21.9504L35.6224 21.9504L35.6224 29.7573L32.6422 29.7573L32.6422 21.9504L29.9384 21.9504L29.9384 19.3501L32.6422 19.3501L32.6422 17.8206C32.6422 15.626 34.1646 13.8428 36.2542 13.8428L38.7794 13.8428L38.7794 16.6096Z" fill="#FFFFFF" fill-opacity="1.000000" fill-rule="nonzero"/>
</svg>
