<svg width="69.599884" height="69.599854" viewBox="0 0 69.5999 69.5999" fill="none" xmlns="http://www.w3.org/2000/svg" xmlns:xlink="http://www.w3.org/1999/xlink">
	<desc>
			Created with Pixso.
	</desc>
	<defs>
		<filter id="filter_1_134_dd" x="0.000000" y="0.000000" width="69.599884" height="69.599854" filterUnits="userSpaceOnUse" color-interpolation-filters="sRGB">
			<feFlood flood-opacity="0" result="BackgroundImageFix"/>
			<feColorMatrix in="SourceAlpha" type="matrix" values="0 0 0 0 0 0 0 0 0 0 0 0 0 0 0 0 0 0 127 0" result="hardAlpha"/>
			<feOffset dx="0" dy="13"/>
			<feGaussianBlur stdDeviation="6"/>
			<feComposite in2="hardAlpha" operator="out" k2="-1" k3="1"/>
			<feColorMatrix type="matrix" values="0 0 0 0 0.066667 0 0 0 0 0.07451 0 0 0 0 0.13725 0 0 0 0.078 0"/>
			<feBlend mode="normal" in2="BackgroundImageFix" result="effect_dropShadow_1"/>
			<feBlend mode="normal" in="SourceGraphic" in2="effect_dropShadow_1" result="shape"/>
		</filter>
	</defs>
	<g filter="url(#filter_1_134_dd)">
		<circle cx="34.799927" cy="21.800049" r="16.799942" fill="#F53838" fill-opacity="1.000000"/>
	</g>
	<path d="M40.0499 21.8C40.0499 23.1924 39.4968 24.5278 38.5122 25.5122C37.5276 26.4968 36.1923 27.05 34.7999 27.05C33.4075 27.05 32.0721 26.4968 31.0876 25.5122C30.103 24.5278 29.5499 23.1924 29.5499 21.8C29.5499 21.5007 29.5814 21.2085 29.6356 20.925L27.7999 20.925L27.7999 27.9197C27.7999 28.4062 28.1936 28.8 28.6801 28.8L40.9214 28.8C41.1545 28.7996 41.378 28.7065 41.5427 28.5415C41.7074 28.3765 41.7999 28.1528 41.7999 27.9197L41.7999 20.925L39.9641 20.925C40.0184 21.2085 40.0499 21.5007 40.0499 21.8ZM34.7999 25.3C35.2596 25.2998 35.7148 25.2092 36.1395 25.0332C36.5642 24.8572 36.9501 24.5991 37.2751 24.2739C37.6001 23.9487 37.8579 23.5627 38.0337 23.1379C38.2096 22.7131 38.3 22.2581 38.2999 21.7983C38.2998 21.3386 38.2091 20.8833 38.0331 20.4585C37.857 20.0339 37.5991 19.6479 37.2739 19.323C36.9487 18.998 36.5627 18.7402 36.1379 18.5645C35.7131 18.3887 35.2579 18.2981 34.7981 18.2983C33.8696 18.2986 32.9793 18.6675 32.3229 19.3242C31.6665 19.981 31.2979 20.8716 31.2981 21.8C31.2984 22.7285 31.6674 23.6189 32.3241 24.2751C32.9808 24.9316 33.8714 25.3003 34.7999 25.3ZM38.9999 18.125L41.0981 18.125C41.2375 18.125 41.3712 18.0698 41.47 17.9714C41.5687 17.873 41.6244 17.7395 41.6249 17.6001L41.6249 15.5017C41.6249 15.3621 41.5694 15.228 41.4706 15.1294C41.3718 15.0305 41.2378 14.9751 41.0981 14.9751L38.9999 14.9751C38.8602 14.9751 38.7262 15.0305 38.6274 15.1294C38.5286 15.228 38.4731 15.3621 38.4731 15.5017L38.4731 17.6001C38.4749 17.8887 38.7111 18.125 38.9999 18.125ZM34.7999 5C30.3442 5 26.0711 6.77002 22.9205 9.92065C19.7699 13.0713 17.9999 17.3445 17.9999 21.8C17.9999 26.2556 19.7699 30.5288 22.9205 33.6794C26.0711 36.8301 30.3442 38.6001 34.7999 38.6001C37.0061 38.6001 39.1907 38.1655 41.229 37.3213C43.2672 36.4768 45.1193 35.2395 46.6793 33.6794C48.2393 32.1194 49.4768 30.2673 50.321 28.229C51.1653 26.1909 51.5999 24.0061 51.5999 21.8C51.5999 19.5938 51.1653 17.4092 50.321 15.3708C49.4768 13.3328 48.2393 11.4807 46.6793 9.92065C45.1193 8.3606 43.2672 7.12305 41.229 6.27881C39.1907 5.43457 37.0061 5 34.7999 5ZM43.5499 28.6057C43.5499 29.675 42.6749 30.55 41.6056 30.55L27.9941 30.55C26.9249 30.55 26.0499 29.675 26.0499 28.6057L26.0499 14.9941C26.0499 13.925 26.9249 13.05 27.9941 13.05L41.6056 13.05C42.6749 13.05 43.5499 13.925 43.5499 14.9941L43.5499 28.6057Z" fill="#FFFFFF" fill-opacity="1.000000" fill-rule="nonzero"/>
</svg>
