<svg width="69.599854" height="69.599854" viewBox="0 0 69.5999 69.5999" fill="none" xmlns="http://www.w3.org/2000/svg" xmlns:xlink="http://www.w3.org/1999/xlink">
	<desc>
			Created with Pixso.
	</desc>
	<defs>
		<filter id="filter_1_131_dd" x="0.000000" y="0.000000" width="69.599854" height="69.599854" filterUnits="userSpaceOnUse" color-interpolation-filters="sRGB">
			<feFlood flood-opacity="0" result="BackgroundImageFix"/>
			<feColorMatrix in="SourceAlpha" type="matrix" values="0 0 0 0 0 0 0 0 0 0 0 0 0 0 0 0 0 0 127 0" result="hardAlpha"/>
			<feOffset dx="0" dy="13"/>
			<feGaussianBlur stdDeviation="6"/>
			<feComposite in2="hardAlpha" operator="out" k2="-1" k3="1"/>
			<feColorMatrix type="matrix" values="0 0 0 0 0.066667 0 0 0 0 0.07451 0 0 0 0 0.13725 0 0 0 0.078 0"/>
			<feBlend mode="normal" in2="BackgroundImageFix" result="effect_dropShadow_1"/>
			<feBlend mode="normal" in="SourceGraphic" in2="effect_dropShadow_1" result="shape"/>
		</filter>
	</defs>
	<g filter="url(#filter_1_131_dd)">
		<circle cx="34.799927" cy="21.800049" r="16.799942" fill="#F53838" fill-opacity="1.000000"/>
	</g>
	<path d="M34.7999 5C25.5214 5 17.9999 12.5215 17.9999 21.8C17.9999 31.0786 25.5214 38.6001 34.7999 38.6001C44.0784 38.6001 51.5999 31.0786 51.5999 21.8C51.5999 12.5215 44.0784 5 34.7999 5ZM41.6336 18.762C41.6406 18.9055 41.6424 19.0491 41.6424 19.189C41.6424 23.564 38.3156 28.6057 32.2291 28.6057C30.4307 28.6086 28.6696 28.0923 27.1577 27.1182C27.4149 27.1497 27.6791 27.1621 27.9469 27.1621C29.4974 27.1621 30.9236 26.6353 32.0559 25.7463C31.3659 25.7327 30.6973 25.5042 30.1433 25.0928C29.5894 24.6812 29.1776 24.1069 28.9654 23.4502C29.4609 23.5444 29.9714 23.5247 30.4581 23.3926C29.7092 23.241 29.0357 22.8352 28.5519 22.2439C28.068 21.6526 27.8036 20.9121 27.8034 20.1479L27.8034 20.1077C28.2496 20.3545 28.7606 20.5049 29.3031 20.5225C28.601 20.0552 28.104 19.3372 27.9137 18.5154C27.7234 17.6938 27.8542 16.8303 28.2794 16.1021C29.1105 17.124 30.1471 17.96 31.3219 18.5562C32.4966 19.1521 33.7835 19.4946 35.0991 19.5618C34.9319 18.8518 35.0038 18.1064 35.3039 17.4417C35.6039 16.7769 36.1152 16.2297 36.7582 15.8855C37.4013 15.5413 38.1401 15.4189 38.8597 15.5378C39.5793 15.6567 40.2395 16.0103 40.7376 16.543C41.4781 16.3965 42.1884 16.1248 42.8376 15.7397C42.5908 16.5066 42.074 17.1575 41.3834 17.572C42.0394 17.4929 42.6799 17.3167 43.2839 17.0488C42.8402 17.7136 42.2814 18.2937 41.6336 18.762Z" fill="#FFFFFF" fill-opacity="1.000000" fill-rule="nonzero"/>
</svg>
