<svg width="145.641693" height="165.744171" viewBox="0 0 145.642 165.744" fill="none" xmlns="http://www.w3.org/2000/svg" xmlns:xlink="http://www.w3.org/1999/xlink">
	<desc>
			Created with Pixso.
	</desc>
	<defs>
		<linearGradient id="paint_linear_9_264_0" x1="4.379520" y1="0.932285" x2="4.379520" y2="9.156464" gradientUnits="userSpaceOnUse">
			<stop stop-color="#FFE89E"/>
			<stop offset="1.000000" stop-color="#FFBF1A"/>
		</linearGradient>
		<linearGradient id="paint_linear_9_267_0" x1="2.915141" y1="0.620557" x2="2.915141" y2="6.094818" gradientUnits="userSpaceOnUse">
			<stop stop-color="#FFE89E"/>
			<stop offset="1.000000" stop-color="#FFBF1A"/>
		</linearGradient>
		<linearGradient id="paint_linear_9_270_0" x1="4.379520" y1="0.932285" x2="4.379520" y2="9.156466" gradientUnits="userSpaceOnUse">
			<stop stop-color="#FFE89E"/>
			<stop offset="1.000000" stop-color="#FFBF1A"/>
		</linearGradient>
		<linearGradient id="paint_linear_9_273_0" x1="6.443298" y1="1.371609" x2="6.443298" y2="13.471297" gradientUnits="userSpaceOnUse">
			<stop stop-color="#FFE89E"/>
			<stop offset="1.000000" stop-color="#FFBF1A"/>
		</linearGradient>
		<linearGradient id="paint_linear_9_385_0" x1="92.073212" y1="39.329227" x2="92.073212" y2="47.553406" gradientUnits="userSpaceOnUse">
			<stop stop-color="#FFE89E"/>
			<stop offset="1.000000" stop-color="#FFBF1A"/>
		</linearGradient>
		<linearGradient id="paint_linear_9_388_0" x1="97.840736" y1="25.231365" x2="97.840736" y2="30.705627" gradientUnits="userSpaceOnUse">
			<stop stop-color="#FFE89E"/>
			<stop offset="1.000000" stop-color="#FFBF1A"/>
		</linearGradient>
		<linearGradient id="paint_linear_9_391_0" x1="111.315277" y1="10.849003" x2="111.315277" y2="19.073183" gradientUnits="userSpaceOnUse">
			<stop stop-color="#FFE89E"/>
			<stop offset="1.000000" stop-color="#FFBF1A"/>
		</linearGradient>
		<linearGradient id="paint_linear_9_394_0" x1="112.729797" y1="42.553707" x2="112.729797" y2="54.653397" gradientUnits="userSpaceOnUse">
			<stop stop-color="#FFE89E"/>
			<stop offset="1.000000" stop-color="#FFBF1A"/>
		</linearGradient>
		<linearGradient id="paint_linear_9_157_0" x1="57.370163" y1="92.134796" x2="21.317574" y2="190.678497" gradientUnits="userSpaceOnUse">
			<stop stop-color="#FFD481"/>
			<stop offset="1.000000" stop-color="#FA620C"/>
		</linearGradient>
		<linearGradient id="paint_linear_9_159_0" x1="42.685722" y1="99.694427" x2="151.080444" y2="216.100998" gradientUnits="userSpaceOnUse">
			<stop stop-color="#FFD481"/>
			<stop offset="0.833110" stop-color="#FA620C"/>
		</linearGradient>
		<linearGradient id="paint_linear_9_164_0" x1="28.535629" y1="96.584976" x2="-3.832474" y2="136.569122" gradientUnits="userSpaceOnUse">
			<stop stop-color="#FFD481"/>
			<stop offset="1.000000" stop-color="#FA620C"/>
		</linearGradient>
		<linearGradient id="paint_linear_9_166_0" x1="121.794647" y1="96.584976" x2="139.801605" y2="136.569107" gradientUnits="userSpaceOnUse">
			<stop stop-color="#FFD481"/>
			<stop offset="1.000000" stop-color="#FA620C"/>
		</linearGradient>
		<linearGradient id="paint_linear_9_179_0" x1="59.849918" y1="75.142540" x2="59.037071" y2="98.117859" gradientUnits="userSpaceOnUse">
			<stop stop-color="#FF9F81"/>
			<stop offset="1.000000" stop-color="#F53838"/>
		</linearGradient>
		<linearGradient id="paint_linear_9_180_0" x1="86.228416" y1="64.173233" x2="85.443069" y2="86.374428" gradientUnits="userSpaceOnUse">
			<stop stop-color="#FF9F81"/>
			<stop offset="1.000000" stop-color="#F53838"/>
		</linearGradient>
		<linearGradient id="paint_linear_9_181_0" x1="68.198776" y1="45.379967" x2="67.565384" y2="63.283047" gradientUnits="userSpaceOnUse">
			<stop stop-color="#FF9F81"/>
			<stop offset="1.000000" stop-color="#F53838"/>
		</linearGradient>
		<linearGradient id="paint_linear_9_182_0" x1="72.750542" y1="18.579803" x2="72.750542" y2="199.903748" gradientUnits="userSpaceOnUse">
			<stop stop-color="#FFFFFF" stop-opacity="0.000000"/>
			<stop offset="1.000000" stop-color="#FE9277"/>
		</linearGradient>
	</defs>
	<path d="M51.8456 39.8819C52.5023 38.4561 53.2716 37.3486 53.78 36.7646C53.79 38.142 53.5777 39.3775 53.249 40.4513C54.2604 40.9392 55.3114 41.6224 56.3157 42.565C55.5418 42.5416 54.2065 42.3542 52.7139 41.8681C52.0258 43.3853 51.1562 44.4329 50.5859 44.9206C50.6246 43.6437 50.8932 42.42 51.2706 41.3162C50.204 40.8436 49.1233 40.2097 48.1598 39.371C48.905 39.2836 50.2646 39.3566 51.8456 39.8819Z" clip-rule="evenodd" fill="url(#paint_linear_9_264_0)" fill-opacity="1.000000" fill-rule="evenodd"/>
	<path d="M46.6542 25.5992C47.0913 24.6502 47.6034 23.913 47.9417 23.5243C47.9484 24.4411 47.8071 25.2635 47.5883 25.9782C48.2615 26.303 48.9611 26.7577 49.6296 27.3852C49.1145 27.3696 48.2256 27.2448 47.2321 26.9213C46.7742 27.9312 46.1953 28.6285 45.8157 28.9531C45.8414 28.1032 46.0202 27.2887 46.2715 26.5539C45.5615 26.2393 44.8421 25.8174 44.2008 25.2591C44.6968 25.201 45.6018 25.2496 46.6542 25.5992Z" clip-rule="evenodd" fill="url(#paint_linear_9_267_0)" fill-opacity="1.000000" fill-rule="evenodd"/>
	<path d="M32.6035 11.4016C33.2603 9.97589 34.0296 8.86838 34.5379 8.28442C34.5479 9.66177 34.3356 10.8972 34.0069 11.971C35.0183 12.4589 36.0694 13.1421 37.0736 14.0847C36.2997 14.0613 34.9644 13.8739 33.4718 13.3878C32.7838 14.905 31.9141 15.9526 31.3439 16.4403C31.3825 15.1635 31.6512 13.9398 32.0286 12.8359C30.962 12.3633 29.8812 11.7295 28.9177 10.8907C29.663 10.8033 31.0226 10.8763 32.6035 11.4016Z" clip-rule="evenodd" fill="url(#paint_linear_9_270_0)" fill-opacity="1.000000" fill-rule="evenodd"/>
	<path d="M30.3771 43.3668C31.3434 41.2692 32.4752 39.6397 33.2231 38.7806C33.2377 40.807 32.9254 42.6247 32.4418 44.2045C33.9298 44.9223 35.4762 45.9274 36.9537 47.3143C35.8151 47.2798 33.8505 47.0041 31.6546 46.2889C30.6423 48.5211 29.3628 50.0623 28.5239 50.7798C28.5807 48.9013 28.976 47.101 29.5312 45.4769C27.962 44.7816 26.372 43.8491 24.9544 42.6151C26.0508 42.4866 28.0511 42.594 30.3771 43.3668Z" clip-rule="evenodd" fill="url(#paint_linear_9_273_0)" fill-opacity="1.000000" fill-rule="evenodd"/>
	<circle r="0.846528" transform="matrix(0.931142 0.931142 -0.364658 0.364658 36.1902 29.0106)" fill="#2F235A" fill-opacity="1.000000"/>
	<circle r="0.846528" transform="matrix(0.931142 0.931142 -0.364658 0.364658 57.1504 18.3667)" fill="#FE9076" fill-opacity="1.000000"/>
	<circle r="0.846528" transform="matrix(0.931142 0.931142 -0.364658 0.364658 16.9153 22.9909)" fill="#FFA400" fill-opacity="1.000000"/>
	<circle r="0.846528" transform="matrix(0.931142 0.931142 -0.364658 0.364658 35.0933 57.0763)" fill="#23BB86" fill-opacity="1.000000"/>
	<path d="M56.5074 14.3206C55.6838 11.1752 52.7112 3.98132 47.4092 0.369812" stroke="#FE9076" stroke-opacity="1.000000" stroke-width="0.736823" stroke-linecap="round"/>
	<path d="M14.4169 19.5759C12.3676 17.0515 6.68896 11.7278 0.368683 10.6288" stroke="#FFA400" stroke-opacity="1.000000" stroke-width="0.736823" stroke-linecap="round"/>
	<path d="M31.4912 58.3065C29.6751 58.9688 25.1033 61.0793 21.345 64.2226" stroke="#23BB86" stroke-opacity="1.000000" stroke-width="0.736823" stroke-linecap="round"/>
	<path d="M93.7961 39.8819C93.1393 38.4561 92.3701 37.3486 91.8617 36.7646C91.8517 38.142 92.064 39.3775 92.3927 40.4513C91.3813 40.9392 90.3303 41.6224 89.326 42.565C90.0999 42.5416 91.4352 42.3542 92.9278 41.8681C93.6158 43.3853 94.4855 44.4329 95.0558 44.9206C95.0171 43.6437 94.7485 42.42 94.3711 41.3162C95.4377 40.8436 96.5184 40.2097 97.4819 39.371C96.7367 39.2836 95.3771 39.3566 93.7961 39.8819Z" clip-rule="evenodd" fill="url(#paint_linear_9_385_0)" fill-opacity="1.000000" fill-rule="evenodd"/>
	<path d="M98.9875 25.5992C98.5504 24.6502 98.0383 23.913 97.7 23.5243C97.6933 24.4411 97.8346 25.2635 98.0534 25.9782C97.3802 26.303 96.6806 26.7577 96.0121 27.3852C96.5272 27.3696 97.4161 27.2448 98.4095 26.9213C98.8675 27.9312 99.4464 28.6285 99.826 28.9531C99.8003 28.1032 99.6215 27.2887 99.3702 26.5539C100.08 26.2393 100.8 25.8174 101.441 25.2591C100.945 25.201 100.04 25.2496 98.9875 25.5992Z" clip-rule="evenodd" fill="url(#paint_linear_9_388_0)" fill-opacity="1.000000" fill-rule="evenodd"/>
	<path d="M113.038 11.4016C112.381 9.97589 111.612 8.86838 111.104 8.28442C111.094 9.66177 111.306 10.8972 111.635 11.971C110.623 12.4589 109.572 13.1421 108.568 14.0847C109.342 14.0613 110.677 13.8739 112.17 13.3878C112.858 14.905 113.728 15.9526 114.298 16.4403C114.259 15.1635 113.991 13.9398 113.613 12.8359C114.68 12.3633 115.76 11.7295 116.724 10.8907C115.979 10.8033 114.619 10.8763 113.038 11.4016Z" clip-rule="evenodd" fill="url(#paint_linear_9_391_0)" fill-opacity="1.000000" fill-rule="evenodd"/>
	<path d="M115.265 43.3668C114.298 41.2692 113.167 39.6397 112.419 38.7806C112.404 40.807 112.716 42.6247 113.2 44.2045C111.712 44.9223 110.166 45.9274 108.688 47.3143C109.827 47.2798 111.791 47.0041 113.987 46.2889C114.999 48.5211 116.279 50.0623 117.118 50.7798C117.061 48.9013 116.666 47.101 116.111 45.4769C117.68 44.7816 119.27 43.8491 120.687 42.6151C119.591 42.4866 117.591 42.594 115.265 43.3668Z" clip-rule="evenodd" fill="url(#paint_linear_9_394_0)" fill-opacity="1.000000" fill-rule="evenodd"/>
	<circle r="0.846528" transform="matrix(-0.931142 0.931142 0.364658 0.364658 109.452 29.0106)" fill="#2F235A" fill-opacity="1.000000"/>
	<circle r="0.846528" transform="matrix(-0.931142 0.931142 0.364658 0.364658 88.4913 18.3667)" fill="#FE9076" fill-opacity="1.000000"/>
	<circle r="0.846528" transform="matrix(-0.931142 0.931142 0.364658 0.364658 128.726 22.9909)" fill="#FFA400" fill-opacity="1.000000"/>
	<circle r="0.846528" transform="matrix(-0.931142 0.931142 0.364658 0.364658 110.548 57.0763)" fill="#23BB86" fill-opacity="1.000000"/>
	<path d="M89.1343 14.3206C89.9579 11.1752 92.9305 3.98132 98.2325 0.369812" stroke="#FE9076" stroke-opacity="1.000000" stroke-width="0.736823" stroke-linecap="round"/>
	<path d="M131.225 19.5759C133.274 17.0515 138.953 11.7278 145.273 10.6288" stroke="#FFA400" stroke-opacity="1.000000" stroke-width="0.736823" stroke-linecap="round"/>
	<path d="M114.15 58.3065C115.967 58.9688 120.538 61.0793 124.297 64.2226" stroke="#23BB86" stroke-opacity="1.000000" stroke-width="0.736823" stroke-linecap="round"/>
	<rect x="27.355957" y="103.633881" width="89.850471" height="62.110287" fill="url(#paint_linear_9_157_0)" fill-opacity="1.000000"/>
	<mask id="mask9_160" mask-type="alpha" maskUnits="userSpaceOnUse" x="27.355957" y="103.633881" width="89.850464" height="62.110291">
		<rect x="27.355957" y="103.633881" width="89.850471" height="62.110287" fill="#C4C4C4" fill-opacity="1.000000"/>
	</mask>
	<g mask="url(#mask9_160)">
		<path d="M31.6073 102.053L92.7893 102.052L78.9607 126.064L17.7787 126.064L31.6073 102.053Z" fill="#000000" fill-opacity="0.070000" fill-rule="nonzero"/>
	</g>
	<g mask="url(#mask9_160)">
		<rect x="88.457855" y="103.633881" width="89.850471" height="62.110287" fill="url(#paint_linear_9_159_0)" fill-opacity="1.000000"/>
	</g>
	<path d="M27.2766 103.634L88.4585 103.634L76.64 123.356L15.458 123.356L27.2766 103.634Z" fill="url(#paint_linear_9_164_0)" fill-opacity="1.000000" fill-rule="nonzero"/>
	<mask id="mask9_174" mask-type="alpha" maskUnits="userSpaceOnUse" x="88.458496" y="103.633881" width="28.747925" height="62.110291">
		<rect x="88.458496" y="103.633881" width="28.747917" height="62.110287" fill="#C4C4C4" fill-opacity="1.000000"/>
	</mask>
	<g mask="url(#mask9_174)">
		<path d="M113.707 103.531L84.9137 103.531L98.4429 126.237L127.236 126.237L113.707 103.531Z" fill="#000000" fill-opacity="0.070000" fill-rule="nonzero"/>
	</g>
	<path d="M117.251 103.634L88.4585 103.634L100.277 123.356L129.07 123.356L117.251 103.634Z" fill="url(#paint_linear_9_166_0)" fill-opacity="1.000000" fill-rule="nonzero"/>
	<circle cx="59.206909" cy="86.435608" r="8.490823" fill="url(#paint_linear_9_179_0)" fill-opacity="1.000000"/>
	<circle cx="85.607178" cy="75.085815" r="8.204732" fill="url(#paint_linear_9_180_0)" fill-opacity="1.000000"/>
	<circle cx="67.697723" cy="54.179871" r="6.616309" fill="url(#paint_linear_9_181_0)" fill-opacity="1.000000"/>
	<circle cx="90.108490" cy="53.181335" r="1.650000" fill="#FFA800" fill-opacity="0.230000"/>
	<circle cx="79.052429" cy="90.684998" r="1.650000" fill="#FFA800" fill-opacity="0.230000"/>
	<circle cx="51.958282" cy="65.231018" r="1.650000" fill="#FFA800" fill-opacity="0.230000"/>
	<path d="M27.2848 103.928L117.419 103.928L134.04 18.5798L13.4425 18.5798L27.2848 103.928Z" fill="url(#paint_linear_9_182_0)" fill-opacity="1.000000" fill-rule="evenodd"/>
</svg>
