<svg width="145.641693" height="165.744171" viewBox="0 0 145.642 165.744" fill="none" xmlns="http://www.w3.org/2000/svg" xmlns:xlink="http://www.w3.org/1999/xlink" style="">
	<desc>
			Created with Pixso.
	</desc>
	<defs>
		<linearGradient id="paint_linear_9_264_0" x1="4.379520" y1="0.932285" x2="4.379520" y2="9.156464" gradientUnits="userSpaceOnUse">
			<stop stop-color="#FFE89E"></stop>
			<stop offset="1.000000" stop-color="#FFBF1A"></stop>
		</linearGradient>
		<linearGradient id="paint_linear_9_267_0" x1="2.915141" y1="0.620557" x2="2.915141" y2="6.094818" gradientUnits="userSpaceOnUse">
			<stop stop-color="#FFE89E"></stop>
			<stop offset="1.000000" stop-color="#FFBF1A"></stop>
		</linearGradient>
		<linearGradient id="paint_linear_9_270_0" x1="4.379520" y1="0.932285" x2="4.379520" y2="9.156466" gradientUnits="userSpaceOnUse">
			<stop stop-color="#FFE89E"></stop>
			<stop offset="1.000000" stop-color="#FFBF1A"></stop>
		</linearGradient>
		<linearGradient id="paint_linear_9_273_0" x1="6.443298" y1="1.371609" x2="6.443298" y2="13.471297" gradientUnits="userSpaceOnUse">
			<stop stop-color="#FFE89E"></stop>
			<stop offset="1.000000" stop-color="#FFBF1A"></stop>
		</linearGradient>
		<linearGradient id="paint_linear_9_385_0" x1="92.073212" y1="39.329227" x2="92.073212" y2="47.553406" gradientUnits="userSpaceOnUse">
			<stop stop-color="#FFE89E"></stop>
			<stop offset="1.000000" stop-color="#FFBF1A"></stop>
		</linearGradient>
		<linearGradient id="paint_linear_9_388_0" x1="97.840736" y1="25.231365" x2="97.840736" y2="30.705627" gradientUnits="userSpaceOnUse">
			<stop stop-color="#FFE89E"></stop>
			<stop offset="1.000000" stop-color="#FFBF1A"></stop>
		</linearGradient>
		<linearGradient id="paint_linear_9_391_0" x1="111.315277" y1="10.849003" x2="111.315277" y2="19.073183" gradientUnits="userSpaceOnUse">
			<stop stop-color="#FFE89E"></stop>
			<stop offset="1.000000" stop-color="#FFBF1A"></stop>
		</linearGradient>
		<linearGradient id="paint_linear_9_394_0" x1="112.729797" y1="42.553707" x2="112.729797" y2="54.653397" gradientUnits="userSpaceOnUse">
			<stop stop-color="#FFE89E"></stop>
			<stop offset="1.000000" stop-color="#FFBF1A"></stop>
		</linearGradient>
		<linearGradient id="paint_linear_9_157_0" x1="57.370163" y1="92.134796" x2="21.317574" y2="190.678497" gradientUnits="userSpaceOnUse">
			<stop stop-color="#FFD481"></stop>
			<stop offset="1.000000" stop-color="#FA620C"></stop>
		</linearGradient>
		<linearGradient id="paint_linear_9_159_0" x1="42.685722" y1="99.694427" x2="151.080444" y2="216.100998" gradientUnits="userSpaceOnUse">
			<stop stop-color="#FFD481"></stop>
			<stop offset="0.833110" stop-color="#FA620C"></stop>
		</linearGradient>
		<linearGradient id="paint_linear_9_164_0" x1="28.535629" y1="96.584976" x2="-3.832474" y2="136.569122" gradientUnits="userSpaceOnUse">
			<stop stop-color="#FFD481"></stop>
			<stop offset="1.000000" stop-color="#FA620C"></stop>
		</linearGradient>
		<linearGradient id="paint_linear_9_166_0" x1="121.794647" y1="96.584976" x2="139.801605" y2="136.569107" gradientUnits="userSpaceOnUse">
			<stop stop-color="#FFD481"></stop>
			<stop offset="1.000000" stop-color="#FA620C"></stop>
		</linearGradient>
		<linearGradient id="paint_linear_9_179_0" x1="59.849918" y1="75.142540" x2="59.037071" y2="98.117859" gradientUnits="userSpaceOnUse">
			<stop stop-color="#FF9F81"></stop>
			<stop offset="1.000000" stop-color="#F53838"></stop>
		</linearGradient>
		<linearGradient id="paint_linear_9_180_0" x1="86.228416" y1="64.173233" x2="85.443069" y2="86.374428" gradientUnits="userSpaceOnUse">
			<stop stop-color="#FF9F81"></stop>
			<stop offset="1.000000" stop-color="#F53838"></stop>
		</linearGradient>
		<linearGradient id="paint_linear_9_181_0" x1="68.198776" y1="45.379967" x2="67.565384" y2="63.283047" gradientUnits="userSpaceOnUse">
			<stop stop-color="#FF9F81"></stop>
			<stop offset="1.000000" stop-color="#F53838"></stop>
		</linearGradient>
		<linearGradient id="paint_linear_9_182_0" x1="72.750542" y1="18.579803" x2="72.750542" y2="199.903748" gradientUnits="userSpaceOnUse">
			<stop stop-color="#FFFFFF" stop-opacity="0.000000"></stop>
			<stop offset="1.000000" stop-color="#FE9277"></stop>
		</linearGradient>
	</defs>
	<path d="M51.8456 39.8819C52.5023 38.4561 53.2716 37.3486 53.78 36.7646C53.79 38.142 53.5777 39.3775 53.249 40.4513C54.2604 40.9392 55.3114 41.6224 56.3157 42.565C55.5418 42.5416 54.2065 42.3542 52.7139 41.8681C52.0258 43.3853 51.1562 44.4329 50.5859 44.9206C50.6246 43.6437 50.8932 42.42 51.2706 41.3162C50.204 40.8436 49.1233 40.2097 48.1598 39.371C48.905 39.2836 50.2646 39.3566 51.8456 39.8819Z" clip-rule="evenodd" fill="url(#paint_linear_9_264_0)" fill-opacity="1.000000" fill-rule="evenodd" class="YprHWaCy_0"></path>
	<path d="M46.6542 25.5992C47.0913 24.6502 47.6034 23.913 47.9417 23.5243C47.9484 24.4411 47.8071 25.2635 47.5883 25.9782C48.2615 26.303 48.9611 26.7577 49.6296 27.3852C49.1145 27.3696 48.2256 27.2448 47.2321 26.9213C46.7742 27.9312 46.1953 28.6285 45.8157 28.9531C45.8414 28.1032 46.0202 27.2887 46.2715 26.5539C45.5615 26.2393 44.8421 25.8174 44.2008 25.2591C44.6968 25.201 45.6018 25.2496 46.6542 25.5992Z" clip-rule="evenodd" fill="url(#paint_linear_9_267_0)" fill-opacity="1.000000" fill-rule="evenodd" class="YprHWaCy_1"></path>
	<path d="M32.6035 11.4016C33.2603 9.97589 34.0296 8.86838 34.5379 8.28442C34.5479 9.66177 34.3356 10.8972 34.0069 11.971C35.0183 12.4589 36.0694 13.1421 37.0736 14.0847C36.2997 14.0613 34.9644 13.8739 33.4718 13.3878C32.7838 14.905 31.9141 15.9526 31.3439 16.4403C31.3825 15.1635 31.6512 13.9398 32.0286 12.8359C30.962 12.3633 29.8812 11.7295 28.9177 10.8907C29.663 10.8033 31.0226 10.8763 32.6035 11.4016Z" clip-rule="evenodd" fill="url(#paint_linear_9_270_0)" fill-opacity="1.000000" fill-rule="evenodd" class="YprHWaCy_2"></path>
	<path d="M30.3771 43.3668C31.3434 41.2692 32.4752 39.6397 33.2231 38.7806C33.2377 40.807 32.9254 42.6247 32.4418 44.2045C33.9298 44.9223 35.4762 45.9274 36.9537 47.3143C35.8151 47.2798 33.8505 47.0041 31.6546 46.2889C30.6423 48.5211 29.3628 50.0623 28.5239 50.7798C28.5807 48.9013 28.976 47.101 29.5312 45.4769C27.962 44.7816 26.372 43.8491 24.9544 42.6151C26.0508 42.4866 28.0511 42.594 30.3771 43.3668Z" clip-rule="evenodd" fill="url(#paint_linear_9_273_0)" fill-opacity="1.000000" fill-rule="evenodd" class="YprHWaCy_3"></path>
	<path transform="matrix(0.931142 0.931142 -0.364658 0.364658 36.1902 29.0106)" fill="#2F235A" fill-opacity="1.000000" d="M-0.846528,0A0.846528,0.846528 0,1,1 0.846528,0A0.846528,0.846528 0,1,1 -0.846528,0" class="YprHWaCy_4"></path>
	<path transform="matrix(0.931142 0.931142 -0.364658 0.364658 57.1504 18.3667)" fill="#FE9076" fill-opacity="1.000000" d="M-0.846528,0A0.846528,0.846528 0,1,1 0.846528,0A0.846528,0.846528 0,1,1 -0.846528,0" class="YprHWaCy_5"></path>
	<path transform="matrix(0.931142 0.931142 -0.364658 0.364658 16.9153 22.9909)" fill="#FFA400" fill-opacity="1.000000" d="M-0.846528,0A0.846528,0.846528 0,1,1 0.846528,0A0.846528,0.846528 0,1,1 -0.846528,0" class="YprHWaCy_6"></path>
	<path transform="matrix(0.931142 0.931142 -0.364658 0.364658 35.0933 57.0763)" fill="#23BB86" fill-opacity="1.000000" d="M-0.846528,0A0.846528,0.846528 0,1,1 0.846528,0A0.846528,0.846528 0,1,1 -0.846528,0" class="YprHWaCy_7"></path>
	<path d="M56.5074 14.3206C55.6838 11.1752 52.7112 3.98132 47.4092 0.369812" stroke="#FE9076" stroke-opacity="1.000000" stroke-width="0.736823" stroke-linecap="round" class="YprHWaCy_8"></path>
	<path d="M14.4169 19.5759C12.3676 17.0515 6.68896 11.7278 0.368683 10.6288" stroke="#FFA400" stroke-opacity="1.000000" stroke-width="0.736823" stroke-linecap="round" class="YprHWaCy_9"></path>
	<path d="M31.4912 58.3065C29.6751 58.9688 25.1033 61.0793 21.345 64.2226" stroke="#23BB86" stroke-opacity="1.000000" stroke-width="0.736823" stroke-linecap="round" class="YprHWaCy_10"></path>
	<path d="M93.7961 39.8819C93.1393 38.4561 92.3701 37.3486 91.8617 36.7646C91.8517 38.142 92.064 39.3775 92.3927 40.4513C91.3813 40.9392 90.3303 41.6224 89.326 42.565C90.0999 42.5416 91.4352 42.3542 92.9278 41.8681C93.6158 43.3853 94.4855 44.4329 95.0558 44.9206C95.0171 43.6437 94.7485 42.42 94.3711 41.3162C95.4377 40.8436 96.5184 40.2097 97.4819 39.371C96.7367 39.2836 95.3771 39.3566 93.7961 39.8819Z" clip-rule="evenodd" fill="url(#paint_linear_9_385_0)" fill-opacity="1.000000" fill-rule="evenodd" class="YprHWaCy_11"></path>
	<path d="M98.9875 25.5992C98.5504 24.6502 98.0383 23.913 97.7 23.5243C97.6933 24.4411 97.8346 25.2635 98.0534 25.9782C97.3802 26.303 96.6806 26.7577 96.0121 27.3852C96.5272 27.3696 97.4161 27.2448 98.4095 26.9213C98.8675 27.9312 99.4464 28.6285 99.826 28.9531C99.8003 28.1032 99.6215 27.2887 99.3702 26.5539C100.08 26.2393 100.8 25.8174 101.441 25.2591C100.945 25.201 100.04 25.2496 98.9875 25.5992Z" clip-rule="evenodd" fill="url(#paint_linear_9_388_0)" fill-opacity="1.000000" fill-rule="evenodd" class="YprHWaCy_12"></path>
	<path d="M113.038 11.4016C112.381 9.97589 111.612 8.86838 111.104 8.28442C111.094 9.66177 111.306 10.8972 111.635 11.971C110.623 12.4589 109.572 13.1421 108.568 14.0847C109.342 14.0613 110.677 13.8739 112.17 13.3878C112.858 14.905 113.728 15.9526 114.298 16.4403C114.259 15.1635 113.991 13.9398 113.613 12.8359C114.68 12.3633 115.76 11.7295 116.724 10.8907C115.979 10.8033 114.619 10.8763 113.038 11.4016Z" clip-rule="evenodd" fill="url(#paint_linear_9_391_0)" fill-opacity="1.000000" fill-rule="evenodd" class="YprHWaCy_13"></path>
	<path d="M115.265 43.3668C114.298 41.2692 113.167 39.6397 112.419 38.7806C112.404 40.807 112.716 42.6247 113.2 44.2045C111.712 44.9223 110.166 45.9274 108.688 47.3143C109.827 47.2798 111.791 47.0041 113.987 46.2889C114.999 48.5211 116.279 50.0623 117.118 50.7798C117.061 48.9013 116.666 47.101 116.111 45.4769C117.68 44.7816 119.27 43.8491 120.687 42.6151C119.591 42.4866 117.591 42.594 115.265 43.3668Z" clip-rule="evenodd" fill="url(#paint_linear_9_394_0)" fill-opacity="1.000000" fill-rule="evenodd" class="YprHWaCy_14"></path>
	<path transform="matrix(-0.931142 0.931142 0.364658 0.364658 109.452 29.0106)" fill="#2F235A" fill-opacity="1.000000" d="M-0.846528,0A0.846528,0.846528 0,1,1 0.846528,0A0.846528,0.846528 0,1,1 -0.846528,0" class="YprHWaCy_15"></path>
	<path transform="matrix(-0.931142 0.931142 0.364658 0.364658 88.4913 18.3667)" fill="#FE9076" fill-opacity="1.000000" d="M-0.846528,0A0.846528,0.846528 0,1,1 0.846528,0A0.846528,0.846528 0,1,1 -0.846528,0" class="YprHWaCy_16"></path>
	<path transform="matrix(-0.931142 0.931142 0.364658 0.364658 128.726 22.9909)" fill="#FFA400" fill-opacity="1.000000" d="M-0.846528,0A0.846528,0.846528 0,1,1 0.846528,0A0.846528,0.846528 0,1,1 -0.846528,0" class="YprHWaCy_17"></path>
	<path transform="matrix(-0.931142 0.931142 0.364658 0.364658 110.548 57.0763)" fill="#23BB86" fill-opacity="1.000000" d="M-0.846528,0A0.846528,0.846528 0,1,1 0.846528,0A0.846528,0.846528 0,1,1 -0.846528,0" class="YprHWaCy_18"></path>
	<path d="M89.1343 14.3206C89.9579 11.1752 92.9305 3.98132 98.2325 0.369812" stroke="#FE9076" stroke-opacity="1.000000" stroke-width="0.736823" stroke-linecap="round" class="YprHWaCy_19"></path>
	<path d="M131.225 19.5759C133.274 17.0515 138.953 11.7278 145.273 10.6288" stroke="#FFA400" stroke-opacity="1.000000" stroke-width="0.736823" stroke-linecap="round" class="YprHWaCy_20"></path>
	<path d="M114.15 58.3065C115.967 58.9688 120.538 61.0793 124.297 64.2226" stroke="#23BB86" stroke-opacity="1.000000" stroke-width="0.736823" stroke-linecap="round" class="YprHWaCy_21"></path>
	<path width="89.850471" height="62.110287" fill="url(#paint_linear_9_157_0)" fill-opacity="1.000000" d="M27.355957 103.633881 L117.206428 103.633881 L117.206428 165.744168 L27.355957 165.744168 Z" class="YprHWaCy_22"></path>
	<mask id="mask9_160" mask-type="alpha" maskUnits="userSpaceOnUse" x="27.355957" y="103.633881" width="89.850464" height="62.110291">
		<path width="89.850471" height="62.110287" fill="#C4C4C4" fill-opacity="1.000000" d="M27.355957 103.633881 L117.206428 103.633881 L117.206428 165.744168 L27.355957 165.744168 Z" class="YprHWaCy_23"></path>
	</mask>
	<g mask="url(#mask9_160)">
		<path d="M31.6073 102.053L92.7893 102.052L78.9607 126.064L17.7787 126.064L31.6073 102.053Z" fill="#000000" fill-opacity="0.070000" fill-rule="nonzero" class="YprHWaCy_24"></path>
	</g>
	<g mask="url(#mask9_160)">
		<path width="89.850471" height="62.110287" fill="url(#paint_linear_9_159_0)" fill-opacity="1.000000" d="M88.457855 103.633881 L178.308326 103.633881 L178.308326 165.744168 L88.457855 165.744168 Z" class="YprHWaCy_25"></path>
	</g>
	<path d="M27.2766 103.634L88.4585 103.634L76.64 123.356L15.458 123.356L27.2766 103.634Z" fill="url(#paint_linear_9_164_0)" fill-opacity="1.000000" fill-rule="nonzero" class="YprHWaCy_26"></path>
	<mask id="mask9_174" mask-type="alpha" maskUnits="userSpaceOnUse" x="88.458496" y="103.633881" width="28.747925" height="62.110291">
		<path width="28.747917" height="62.110287" fill="#C4C4C4" fill-opacity="1.000000" d="M88.458496 103.633881 L117.206413 103.633881 L117.206413 165.744168 L88.458496 165.744168 Z" class="YprHWaCy_27"></path>
	</mask>
	<g mask="url(#mask9_174)">
		<path d="M113.707 103.531L84.9137 103.531L98.4429 126.237L127.236 126.237L113.707 103.531Z" fill="#000000" fill-opacity="0.070000" fill-rule="nonzero" class="YprHWaCy_28"></path>
	</g>
	<path d="M117.251 103.634L88.4585 103.634L100.277 123.356L129.07 123.356L117.251 103.634Z" fill="url(#paint_linear_9_166_0)" fill-opacity="1.000000" fill-rule="nonzero" class="YprHWaCy_29"></path>
	<path fill="url(#paint_linear_9_179_0)" fill-opacity="1.000000" d="M50.716086000000004,86.435608A8.490823,8.490823 0,1,1 67.697732,86.435608A8.490823,8.490823 0,1,1 50.716086000000004,86.435608" class="YprHWaCy_30"></path>
	<path fill="url(#paint_linear_9_180_0)" fill-opacity="1.000000" d="M77.402446,75.085815A8.204732,8.204732 0,1,1 93.81191000000001,75.085815A8.204732,8.204732 0,1,1 77.402446,75.085815" class="YprHWaCy_31"></path>
	<path fill="url(#paint_linear_9_181_0)" fill-opacity="1.000000" d="M61.081413999999995,54.179871A6.616309,6.616309 0,1,1 74.314032,54.179871A6.616309,6.616309 0,1,1 61.081413999999995,54.179871" class="YprHWaCy_32"></path>
	<path fill="#FFA800" fill-opacity="0.230000" d="M88.45849,53.181335A1.65,1.65 0,1,1 91.75849000000001,53.181335A1.65,1.65 0,1,1 88.45849,53.181335" class="YprHWaCy_33"></path>
	<path fill="#FFA800" fill-opacity="0.230000" d="M77.402429,90.684998A1.65,1.65 0,1,1 80.70242900000001,90.684998A1.65,1.65 0,1,1 77.402429,90.684998" class="YprHWaCy_34"></path>
	<path fill="#FFA800" fill-opacity="0.230000" d="M50.308282,65.231018A1.65,1.65 0,1,1 53.608281999999996,65.231018A1.65,1.65 0,1,1 50.308282,65.231018" class="YprHWaCy_35"></path>
	<path d="M27.2848 103.928L117.419 103.928L134.04 18.5798L13.4425 18.5798L27.2848 103.928Z" fill="url(#paint_linear_9_182_0)" fill-opacity="1.000000" fill-rule="evenodd" class="YprHWaCy_36"></path>
<style data-made-with="vivus-instant">.YprHWaCy_0{stroke-dasharray:30 32;stroke-dashoffset:31;animation:YprHWaCy_draw_0 2400ms ease-out 0ms infinite,YprHWaCy_fade 2400ms linear 0ms infinite;}.YprHWaCy_1{stroke-dasharray:20 22;stroke-dashoffset:21;animation:YprHWaCy_draw_1 2400ms ease-out 0ms infinite,YprHWaCy_fade 2400ms linear 0ms infinite;}.YprHWaCy_2{stroke-dasharray:30 32;stroke-dashoffset:31;animation:YprHWaCy_draw_2 2400ms ease-out 0ms infinite,YprHWaCy_fade 2400ms linear 0ms infinite;}.YprHWaCy_3{stroke-dasharray:44 46;stroke-dashoffset:45;animation:YprHWaCy_draw_3 2400ms ease-out 0ms infinite,YprHWaCy_fade 2400ms linear 0ms infinite;}.YprHWaCy_4{stroke-dasharray:6 8;stroke-dashoffset:7;animation:YprHWaCy_draw_4 2400ms ease-out 0ms infinite,YprHWaCy_fade 2400ms linear 0ms infinite;}.YprHWaCy_5{stroke-dasharray:6 8;stroke-dashoffset:7;animation:YprHWaCy_draw_5 2400ms ease-out 0ms infinite,YprHWaCy_fade 2400ms linear 0ms infinite;}.YprHWaCy_6{stroke-dasharray:6 8;stroke-dashoffset:7;animation:YprHWaCy_draw_6 2400ms ease-out 0ms infinite,YprHWaCy_fade 2400ms linear 0ms infinite;}.YprHWaCy_7{stroke-dasharray:6 8;stroke-dashoffset:7;animation:YprHWaCy_draw_7 2400ms ease-out 0ms infinite,YprHWaCy_fade 2400ms linear 0ms infinite;}.YprHWaCy_8{stroke-dasharray:17 19;stroke-dashoffset:18;animation:YprHWaCy_draw_8 2400ms ease-out 0ms infinite,YprHWaCy_fade 2400ms linear 0ms infinite;}.YprHWaCy_9{stroke-dasharray:17 19;stroke-dashoffset:18;animation:YprHWaCy_draw_9 2400ms ease-out 0ms infinite,YprHWaCy_fade 2400ms linear 0ms infinite;}.YprHWaCy_10{stroke-dasharray:12 14;stroke-dashoffset:13;animation:YprHWaCy_draw_10 2400ms ease-out 0ms infinite,YprHWaCy_fade 2400ms linear 0ms infinite;}.YprHWaCy_11{stroke-dasharray:30 32;stroke-dashoffset:31;animation:YprHWaCy_draw_11 2400ms ease-out 0ms infinite,YprHWaCy_fade 2400ms linear 0ms infinite;}.YprHWaCy_12{stroke-dasharray:20 22;stroke-dashoffset:21;animation:YprHWaCy_draw_12 2400ms ease-out 0ms infinite,YprHWaCy_fade 2400ms linear 0ms infinite;}.YprHWaCy_13{stroke-dasharray:30 32;stroke-dashoffset:31;animation:YprHWaCy_draw_13 2400ms ease-out 0ms infinite,YprHWaCy_fade 2400ms linear 0ms infinite;}.YprHWaCy_14{stroke-dasharray:44 46;stroke-dashoffset:45;animation:YprHWaCy_draw_14 2400ms ease-out 0ms infinite,YprHWaCy_fade 2400ms linear 0ms infinite;}.YprHWaCy_15{stroke-dasharray:6 8;stroke-dashoffset:7;animation:YprHWaCy_draw_15 2400ms ease-out 0ms infinite,YprHWaCy_fade 2400ms linear 0ms infinite;}.YprHWaCy_16{stroke-dasharray:6 8;stroke-dashoffset:7;animation:YprHWaCy_draw_16 2400ms ease-out 0ms infinite,YprHWaCy_fade 2400ms linear 0ms infinite;}.YprHWaCy_17{stroke-dasharray:6 8;stroke-dashoffset:7;animation:YprHWaCy_draw_17 2400ms ease-out 0ms infinite,YprHWaCy_fade 2400ms linear 0ms infinite;}.YprHWaCy_18{stroke-dasharray:6 8;stroke-dashoffset:7;animation:YprHWaCy_draw_18 2400ms ease-out 0ms infinite,YprHWaCy_fade 2400ms linear 0ms infinite;}.YprHWaCy_19{stroke-dasharray:17 19;stroke-dashoffset:18;animation:YprHWaCy_draw_19 2400ms ease-out 0ms infinite,YprHWaCy_fade 2400ms linear 0ms infinite;}.YprHWaCy_20{stroke-dasharray:17 19;stroke-dashoffset:18;animation:YprHWaCy_draw_20 2400ms ease-out 0ms infinite,YprHWaCy_fade 2400ms linear 0ms infinite;}.YprHWaCy_21{stroke-dasharray:12 14;stroke-dashoffset:13;animation:YprHWaCy_draw_21 2400ms ease-out 0ms infinite,YprHWaCy_fade 2400ms linear 0ms infinite;}.YprHWaCy_22{stroke-dasharray:304 306;stroke-dashoffset:305;animation:YprHWaCy_draw_22 2400ms ease-out 0ms infinite,YprHWaCy_fade 2400ms linear 0ms infinite;}.YprHWaCy_23{stroke-dasharray:304 306;stroke-dashoffset:305;animation:YprHWaCy_draw_23 2400ms ease-out 0ms infinite,YprHWaCy_fade 2400ms linear 0ms infinite;}.YprHWaCy_24{stroke-dasharray:178 180;stroke-dashoffset:179;animation:YprHWaCy_draw_24 2400ms ease-out 0ms infinite,YprHWaCy_fade 2400ms linear 0ms infinite;}.YprHWaCy_25{stroke-dasharray:304 306;stroke-dashoffset:305;animation:YprHWaCy_draw_25 2400ms ease-out 0ms infinite,YprHWaCy_fade 2400ms linear 0ms infinite;}.YprHWaCy_26{stroke-dasharray:169 171;stroke-dashoffset:170;animation:YprHWaCy_draw_26 2400ms ease-out 0ms infinite,YprHWaCy_fade 2400ms linear 0ms infinite;}.YprHWaCy_27{stroke-dasharray:182 184;stroke-dashoffset:183;animation:YprHWaCy_draw_27 2400ms ease-out 0ms infinite,YprHWaCy_fade 2400ms linear 0ms infinite;}.YprHWaCy_28{stroke-dasharray:111 113;stroke-dashoffset:112;animation:YprHWaCy_draw_28 2400ms ease-out 0ms infinite,YprHWaCy_fade 2400ms linear 0ms infinite;}.YprHWaCy_29{stroke-dasharray:104 106;stroke-dashoffset:105;animation:YprHWaCy_draw_29 2400ms ease-out 0ms infinite,YprHWaCy_fade 2400ms linear 0ms infinite;}.YprHWaCy_30{stroke-dasharray:54 56;stroke-dashoffset:55;animation:YprHWaCy_draw_30 2400ms ease-out 0ms infinite,YprHWaCy_fade 2400ms linear 0ms infinite;}.YprHWaCy_31{stroke-dasharray:52 54;stroke-dashoffset:53;animation:YprHWaCy_draw_31 2400ms ease-out 0ms infinite,YprHWaCy_fade 2400ms linear 0ms infinite;}.YprHWaCy_32{stroke-dasharray:42 44;stroke-dashoffset:43;animation:YprHWaCy_draw_32 2400ms ease-out 0ms infinite,YprHWaCy_fade 2400ms linear 0ms infinite;}.YprHWaCy_33{stroke-dasharray:11 13;stroke-dashoffset:12;animation:YprHWaCy_draw_33 2400ms ease-out 0ms infinite,YprHWaCy_fade 2400ms linear 0ms infinite;}.YprHWaCy_34{stroke-dasharray:11 13;stroke-dashoffset:12;animation:YprHWaCy_draw_34 2400ms ease-out 0ms infinite,YprHWaCy_fade 2400ms linear 0ms infinite;}.YprHWaCy_35{stroke-dasharray:11 13;stroke-dashoffset:12;animation:YprHWaCy_draw_35 2400ms ease-out 0ms infinite,YprHWaCy_fade 2400ms linear 0ms infinite;}.YprHWaCy_36{stroke-dasharray:385 387;stroke-dashoffset:386;animation:YprHWaCy_draw_36 2400ms ease-out 0ms infinite,YprHWaCy_fade 2400ms linear 0ms infinite;}@keyframes YprHWaCy_draw{100%{stroke-dashoffset:0;}}@keyframes YprHWaCy_fade{0%{stroke-opacity:1;}83.33333333333334%{stroke-opacity:1;}100%{stroke-opacity:0;}}@keyframes YprHWaCy_draw_0{0%{stroke-dashoffset: 31}55.55555555555556%{ stroke-dashoffset: 0;}100%{ stroke-dashoffset: 0;}}@keyframes YprHWaCy_draw_1{0.771604938271605%{stroke-dashoffset: 21}56.327160493827165%{ stroke-dashoffset: 0;}100%{ stroke-dashoffset: 0;}}@keyframes YprHWaCy_draw_2{1.54320987654321%{stroke-dashoffset: 31}57.098765432098766%{ stroke-dashoffset: 0;}100%{ stroke-dashoffset: 0;}}@keyframes YprHWaCy_draw_3{2.314814814814815%{stroke-dashoffset: 45}57.87037037037038%{ stroke-dashoffset: 0;}100%{ stroke-dashoffset: 0;}}@keyframes YprHWaCy_draw_4{3.08641975308642%{stroke-dashoffset: 7}58.64197530864198%{ stroke-dashoffset: 0;}100%{ stroke-dashoffset: 0;}}@keyframes YprHWaCy_draw_5{3.8580246913580245%{stroke-dashoffset: 7}59.41358024691359%{ stroke-dashoffset: 0;}100%{ stroke-dashoffset: 0;}}@keyframes YprHWaCy_draw_6{4.62962962962963%{stroke-dashoffset: 7}60.18518518518518%{ stroke-dashoffset: 0;}100%{ stroke-dashoffset: 0;}}@keyframes YprHWaCy_draw_7{5.401234567901234%{stroke-dashoffset: 7}60.95679012345679%{ stroke-dashoffset: 0;}100%{ stroke-dashoffset: 0;}}@keyframes YprHWaCy_draw_8{6.17283950617284%{stroke-dashoffset: 18}61.728395061728406%{ stroke-dashoffset: 0;}100%{ stroke-dashoffset: 0;}}@keyframes YprHWaCy_draw_9{6.944444444444445%{stroke-dashoffset: 18}62.500000000000014%{ stroke-dashoffset: 0;}100%{ stroke-dashoffset: 0;}}@keyframes YprHWaCy_draw_10{7.716049382716049%{stroke-dashoffset: 13}63.27160493827161%{ stroke-dashoffset: 0;}100%{ stroke-dashoffset: 0;}}@keyframes YprHWaCy_draw_11{8.487654320987655%{stroke-dashoffset: 31}64.04320987654322%{ stroke-dashoffset: 0;}100%{ stroke-dashoffset: 0;}}@keyframes YprHWaCy_draw_12{9.25925925925926%{stroke-dashoffset: 21}64.81481481481481%{ stroke-dashoffset: 0;}100%{ stroke-dashoffset: 0;}}@keyframes YprHWaCy_draw_13{10.030864197530866%{stroke-dashoffset: 31}65.58641975308643%{ stroke-dashoffset: 0;}100%{ stroke-dashoffset: 0;}}@keyframes YprHWaCy_draw_14{10.802469135802468%{stroke-dashoffset: 45}66.35802469135803%{ stroke-dashoffset: 0;}100%{ stroke-dashoffset: 0;}}@keyframes YprHWaCy_draw_15{11.574074074074074%{stroke-dashoffset: 7}67.12962962962963%{ stroke-dashoffset: 0;}100%{ stroke-dashoffset: 0;}}@keyframes YprHWaCy_draw_16{12.34567901234568%{stroke-dashoffset: 7}67.90123456790124%{ stroke-dashoffset: 0;}100%{ stroke-dashoffset: 0;}}@keyframes YprHWaCy_draw_17{13.117283950617283%{stroke-dashoffset: 7}68.67283950617285%{ stroke-dashoffset: 0;}100%{ stroke-dashoffset: 0;}}@keyframes YprHWaCy_draw_18{13.88888888888889%{stroke-dashoffset: 7}69.44444444444446%{ stroke-dashoffset: 0;}100%{ stroke-dashoffset: 0;}}@keyframes YprHWaCy_draw_19{14.660493827160492%{stroke-dashoffset: 18}70.21604938271605%{ stroke-dashoffset: 0;}100%{ stroke-dashoffset: 0;}}@keyframes YprHWaCy_draw_20{15.432098765432098%{stroke-dashoffset: 18}70.98765432098766%{ stroke-dashoffset: 0;}100%{ stroke-dashoffset: 0;}}@keyframes YprHWaCy_draw_21{16.203703703703702%{stroke-dashoffset: 13}71.75925925925927%{ stroke-dashoffset: 0;}100%{ stroke-dashoffset: 0;}}@keyframes YprHWaCy_draw_22{16.97530864197531%{stroke-dashoffset: 305}72.53086419753086%{ stroke-dashoffset: 0;}100%{ stroke-dashoffset: 0;}}@keyframes YprHWaCy_draw_23{17.746913580246915%{stroke-dashoffset: 305}73.30246913580247%{ stroke-dashoffset: 0;}100%{ stroke-dashoffset: 0;}}@keyframes YprHWaCy_draw_24{18.51851851851852%{stroke-dashoffset: 179}74.07407407407408%{ stroke-dashoffset: 0;}100%{ stroke-dashoffset: 0;}}@keyframes YprHWaCy_draw_25{19.290123456790127%{stroke-dashoffset: 305}74.84567901234568%{ stroke-dashoffset: 0;}100%{ stroke-dashoffset: 0;}}@keyframes YprHWaCy_draw_26{20.06172839506173%{stroke-dashoffset: 170}75.61728395061729%{ stroke-dashoffset: 0;}100%{ stroke-dashoffset: 0;}}@keyframes YprHWaCy_draw_27{20.833333333333336%{stroke-dashoffset: 183}76.3888888888889%{ stroke-dashoffset: 0;}100%{ stroke-dashoffset: 0;}}@keyframes YprHWaCy_draw_28{21.604938271604937%{stroke-dashoffset: 112}77.16049382716051%{ stroke-dashoffset: 0;}100%{ stroke-dashoffset: 0;}}@keyframes YprHWaCy_draw_29{22.376543209876544%{stroke-dashoffset: 105}77.9320987654321%{ stroke-dashoffset: 0;}100%{ stroke-dashoffset: 0;}}@keyframes YprHWaCy_draw_30{23.14814814814815%{stroke-dashoffset: 55}78.70370370370371%{ stroke-dashoffset: 0;}100%{ stroke-dashoffset: 0;}}@keyframes YprHWaCy_draw_31{23.919753086419757%{stroke-dashoffset: 53}79.47530864197532%{ stroke-dashoffset: 0;}100%{ stroke-dashoffset: 0;}}@keyframes YprHWaCy_draw_32{24.69135802469136%{stroke-dashoffset: 43}80.24691358024693%{ stroke-dashoffset: 0;}100%{ stroke-dashoffset: 0;}}@keyframes YprHWaCy_draw_33{25.46296296296296%{stroke-dashoffset: 12}81.01851851851852%{ stroke-dashoffset: 0;}100%{ stroke-dashoffset: 0;}}@keyframes YprHWaCy_draw_34{26.234567901234566%{stroke-dashoffset: 12}81.79012345679013%{ stroke-dashoffset: 0;}100%{ stroke-dashoffset: 0;}}@keyframes YprHWaCy_draw_35{27.00617283950617%{stroke-dashoffset: 12}82.56172839506173%{ stroke-dashoffset: 0;}100%{ stroke-dashoffset: 0;}}@keyframes YprHWaCy_draw_36{27.77777777777778%{stroke-dashoffset: 386}83.33333333333334%{ stroke-dashoffset: 0;}100%{ stroke-dashoffset: 0;}}</style></svg>
