<svg width="35.000000" height="36.232422" viewBox="0 0 35 36.2324" fill="none" xmlns="http://www.w3.org/2000/svg" xmlns:xlink="http://www.w3.org/1999/xlink">
	<desc>
			Created with Pixso.
	</desc>
	<defs/>
	<path d="M31.1473 13.6477L31.1255 13.626C31.1238 13.6248 31.1224 13.623 31.1215 13.6213L17.5006 0L3.87982 13.6208C3.87823 13.6226 3.87579 13.6255 3.87579 13.6255L3.85333 13.6475C1.77051 15.7419 0.447571 18.4724 0.0947876 21.4053C-0.257935 24.3379 0.3797 27.3044 1.90637 29.8333C3.43311 32.3618 5.76123 34.3079 8.52069 35.3613C11.2802 36.4148 14.3126 36.5156 17.136 35.6477C17.3735 35.5752 17.6275 35.5752 17.8651 35.6477C20.6882 36.5154 23.7205 36.4143 26.4798 35.3606C29.2391 34.3071 31.567 32.3613 33.0936 29.8328C34.6202 27.3042 35.2579 24.3379 34.9053 21.4053C34.5526 18.4729 33.2299 15.7422 31.1473 13.6477ZM8.72321 22.6299C8.65686 22.696 8.60431 22.7749 8.56842 22.8613C8.53259 22.948 8.5141 23.0408 8.5141 23.1345C8.53833 25.5386 9.21777 27.8904 10.4792 29.937C10.5079 29.9834 10.5211 30.0378 10.517 30.0923C10.5129 30.1465 10.4918 30.1982 10.4565 30.24C10.4213 30.2815 10.3738 30.311 10.3209 30.324C10.2679 30.3369 10.2122 30.333 10.1616 30.3125C9.21332 29.9136 8.35181 29.3337 7.62531 28.6055C6.13647 27.1162 5.29944 25.0969 5.2981 22.9912C5.29675 20.8855 6.13116 18.8652 7.6181 17.3743L17.5006 7.49268L27.3826 17.3743C28.8698 18.865 29.7045 20.8853 29.7031 22.9912C29.7018 25.0969 28.8646 27.1162 27.3757 28.6055C26.6492 29.3337 25.7877 29.9136 24.8396 30.3125C24.7889 30.333 24.7332 30.3369 24.6802 30.324C24.6273 30.311 24.5798 30.2815 24.5444 30.24C24.5093 30.1982 24.488 30.1465 24.4839 30.092C24.4799 30.0376 24.4931 29.9834 24.5218 29.937C25.7835 27.8904 26.4633 25.5386 26.4879 23.1345C26.4879 23.0408 26.4692 22.948 26.4332 22.8613C26.3971 22.7747 26.3444 22.696 26.2779 22.6296L21.6036 17.6716C21.5571 17.6328 21.4985 17.6116 21.4378 17.6116C21.3773 17.6116 21.3185 17.6328 21.2722 17.6716C21.2255 17.7104 21.1942 17.7644 21.1833 17.824C21.1724 17.8835 21.1828 17.9451 21.2127 17.9978C23.0281 21.283 21.467 26.0017 18.8637 28.6055L18.85 28.6191C18.4907 28.9746 18.0056 29.1738 17.5002 29.1736C16.9948 29.1733 16.5098 28.9739 16.1508 28.6182L16.1381 28.6055C13.5339 26.0017 11.9736 21.2834 13.7893 17.9985C13.8192 17.9458 13.8296 17.8843 13.8187 17.8247C13.8079 17.7651 13.7764 17.7112 13.7299 17.6724C13.6834 17.6335 13.6248 17.6123 13.5641 17.6123C13.5035 17.6123 13.4449 17.6335 13.3984 17.6724L8.72321 22.6299Z" fill="#F53838" fill-opacity="1.000000" fill-rule="nonzero"/>
</svg>
