<svg width="508.921631" height="414.714722" viewBox="0 0 508.922 414.715" fill="none" xmlns="http://www.w3.org/2000/svg" xmlns:xlink="http://www.w3.org/1999/xlink" style="">
	<desc>
			Created with Pixso.
	</desc>
	<defs>
		<filter id="filter_1_497_dd" x="154.008636" y="77.684814" width="173.660126" height="125.954590" filterUnits="userSpaceOnUse" color-interpolation-filters="sRGB">
			<feFlood flood-opacity="0" result="BackgroundImageFix"></feFlood>
			<feColorMatrix in="SourceAlpha" type="matrix" values="0 0 0 0 0 0 0 0 0 0 0 0 0 0 0 0 0 0 127 0" result="hardAlpha"></feColorMatrix>
			<feOffset dx="0" dy="4"></feOffset>
			<feGaussianBlur stdDeviation="11.3333"></feGaussianBlur>
			<feComposite in2="hardAlpha" operator="out" k2="-1" k3="1"></feComposite>
			<feColorMatrix type="matrix" values="0 0 0 0 0.039216 0 0 0 0 0.066667 0 0 0 0 0.10588 0 0 0 0.13 0"></feColorMatrix>
			<feBlend mode="normal" in2="BackgroundImageFix" result="effect_dropShadow_1"></feBlend>
			<feBlend mode="normal" in="SourceGraphic" in2="effect_dropShadow_1" result="shape"></feBlend>
		</filter>
		<filter id="filter_1_498_dd" x="257.115448" y="142.374634" width="76.189148" height="88.775269" filterUnits="userSpaceOnUse" color-interpolation-filters="sRGB">
			<feFlood flood-opacity="0" result="BackgroundImageFix"></feFlood>
			<feColorMatrix in="SourceAlpha" type="matrix" values="0 0 0 0 0 0 0 0 0 0 0 0 0 0 0 0 0 0 127 0" result="hardAlpha"></feColorMatrix>
			<feOffset dx="0" dy="4"></feOffset>
			<feGaussianBlur stdDeviation="11.3333"></feGaussianBlur>
			<feComposite in2="hardAlpha" operator="out" k2="-1" k3="1"></feComposite>
			<feColorMatrix type="matrix" values="0 0 0 0 0.039216 0 0 0 0 0.066667 0 0 0 0 0.10588 0 0 0 0.13 0"></feColorMatrix>
			<feBlend mode="normal" in2="BackgroundImageFix" result="effect_dropShadow_1"></feBlend>
			<feBlend mode="normal" in="SourceGraphic" in2="effect_dropShadow_1" result="shape"></feBlend>
		</filter>
		<filter id="filter_1_499_dd" x="242.283722" y="129.657471" width="89.566925" height="111.363037" filterUnits="userSpaceOnUse" color-interpolation-filters="sRGB">
			<feFlood flood-opacity="0" result="BackgroundImageFix"></feFlood>
			<feColorMatrix in="SourceAlpha" type="matrix" values="0 0 0 0 0 0 0 0 0 0 0 0 0 0 0 0 0 0 127 0" result="hardAlpha"></feColorMatrix>
			<feOffset dx="0" dy="4"></feOffset>
			<feGaussianBlur stdDeviation="11.3333"></feGaussianBlur>
			<feComposite in2="hardAlpha" operator="out" k2="-1" k3="1"></feComposite>
			<feColorMatrix type="matrix" values="0 0 0 0 0.039216 0 0 0 0 0.066667 0 0 0 0 0.10588 0 0 0 0.13 0"></feColorMatrix>
			<feBlend mode="normal" in2="BackgroundImageFix" result="effect_dropShadow_1"></feBlend>
			<feBlend mode="normal" in="SourceGraphic" in2="effect_dropShadow_1" result="shape"></feBlend>
		</filter>
		<filter id="filter_1_500_dd" x="146.482025" y="142.374634" width="76.189148" height="88.775269" filterUnits="userSpaceOnUse" color-interpolation-filters="sRGB">
			<feFlood flood-opacity="0" result="BackgroundImageFix"></feFlood>
			<feColorMatrix in="SourceAlpha" type="matrix" values="0 0 0 0 0 0 0 0 0 0 0 0 0 0 0 0 0 0 127 0" result="hardAlpha"></feColorMatrix>
			<feOffset dx="0" dy="4"></feOffset>
			<feGaussianBlur stdDeviation="11.3333"></feGaussianBlur>
			<feComposite in2="hardAlpha" operator="out" k2="-1" k3="1"></feComposite>
			<feColorMatrix type="matrix" values="0 0 0 0 0.039216 0 0 0 0 0.066667 0 0 0 0 0.10588 0 0 0 0.13 0"></feColorMatrix>
			<feBlend mode="normal" in2="BackgroundImageFix" result="effect_dropShadow_1"></feBlend>
			<feBlend mode="normal" in="SourceGraphic" in2="effect_dropShadow_1" result="shape"></feBlend>
		</filter>
		<filter id="filter_1_501_dd" x="147.783020" y="129.657471" width="89.566925" height="111.363037" filterUnits="userSpaceOnUse" color-interpolation-filters="sRGB">
			<feFlood flood-opacity="0" result="BackgroundImageFix"></feFlood>
			<feColorMatrix in="SourceAlpha" type="matrix" values="0 0 0 0 0 0 0 0 0 0 0 0 0 0 0 0 0 0 127 0" result="hardAlpha"></feColorMatrix>
			<feOffset dx="0" dy="4"></feOffset>
			<feGaussianBlur stdDeviation="11.3333"></feGaussianBlur>
			<feComposite in2="hardAlpha" operator="out" k2="-1" k3="1"></feComposite>
			<feColorMatrix type="matrix" values="0 0 0 0 0.039216 0 0 0 0 0.066667 0 0 0 0 0.10588 0 0 0 0.13 0"></feColorMatrix>
			<feBlend mode="normal" in2="BackgroundImageFix" result="effect_dropShadow_1"></feBlend>
			<feBlend mode="normal" in="SourceGraphic" in2="effect_dropShadow_1" result="shape"></feBlend>
		</filter>
		<filter id="filter_1_503_dd" x="147.783081" y="129.657471" width="89.566925" height="111.363037" filterUnits="userSpaceOnUse" color-interpolation-filters="sRGB">
			<feFlood flood-opacity="0" result="BackgroundImageFix"></feFlood>
			<feColorMatrix in="SourceAlpha" type="matrix" values="0 0 0 0 0 0 0 0 0 0 0 0 0 0 0 0 0 0 127 0" result="hardAlpha"></feColorMatrix>
			<feOffset dx="0" dy="4"></feOffset>
			<feGaussianBlur stdDeviation="11.3333"></feGaussianBlur>
			<feComposite in2="hardAlpha" operator="out" k2="-1" k3="1"></feComposite>
			<feColorMatrix type="matrix" values="0 0 0 0 0.039216 0 0 0 0 0.066667 0 0 0 0 0.10588 0 0 0 0.13 0"></feColorMatrix>
			<feBlend mode="normal" in2="BackgroundImageFix" result="effect_dropShadow_1"></feBlend>
			<feBlend mode="normal" in="SourceGraphic" in2="effect_dropShadow_1" result="shape"></feBlend>
		</filter>
		<filter id="filter_1_506_dd" x="242.283691" y="129.657471" width="89.566925" height="111.363037" filterUnits="userSpaceOnUse" color-interpolation-filters="sRGB">
			<feFlood flood-opacity="0" result="BackgroundImageFix"></feFlood>
			<feColorMatrix in="SourceAlpha" type="matrix" values="0 0 0 0 0 0 0 0 0 0 0 0 0 0 0 0 0 0 127 0" result="hardAlpha"></feColorMatrix>
			<feOffset dx="0" dy="4"></feOffset>
			<feGaussianBlur stdDeviation="11.3333"></feGaussianBlur>
			<feComposite in2="hardAlpha" operator="out" k2="-1" k3="1"></feComposite>
			<feColorMatrix type="matrix" values="0 0 0 0 0.039216 0 0 0 0 0.066667 0 0 0 0 0.10588 0 0 0 0.13 0"></feColorMatrix>
			<feBlend mode="normal" in2="BackgroundImageFix" result="effect_dropShadow_1"></feBlend>
			<feBlend mode="normal" in="SourceGraphic" in2="effect_dropShadow_1" result="shape"></feBlend>
		</filter>
		<linearGradient id="paint_linear_1_3_0" x1="390.596008" y1="158.321106" x2="393.240936" y2="334.188934" gradientUnits="userSpaceOnUse">
			<stop stop-color="#FFEFE0"></stop>
			<stop offset="1.000000" stop-color="#FFBE99"></stop>
		</linearGradient>
		<linearGradient id="paint_linear_1_4_0" x1="242.076935" y1="200.208206" x2="229.677383" y2="448.545593" gradientUnits="userSpaceOnUse">
			<stop stop-color="#FF9F81"></stop>
			<stop offset="1.000000" stop-color="#F53838"></stop>
		</linearGradient>
		<linearGradient id="paint_linear_1_5_0" x1="227.011871" y1="287.483368" x2="108.340118" y2="344.358307" gradientUnits="userSpaceOnUse">
			<stop offset="0.067797" stop-color="#FFEFE0"></stop>
			<stop offset="1.000000" stop-color="#FFBE99"></stop>
		</linearGradient>
		<linearGradient id="paint_linear_1_489_0" x1="238.006531" y1="172.975403" x2="240.086548" y2="239.361435" gradientUnits="userSpaceOnUse">
			<stop stop-color="#FFEFE0"></stop>
			<stop offset="1.000000" stop-color="#FFBE99"></stop>
		</linearGradient>
		<linearGradient id="paint_linear_1_491_0" x1="238.006546" y1="172.975388" x2="235.092346" y2="248.605637" gradientUnits="userSpaceOnUse">
			<stop stop-color="#FFEFE0"></stop>
			<stop offset="1.000000" stop-color="#FFBE99"></stop>
		</linearGradient>
		<linearGradient id="paint_linear_1_493_0" x1="241.463104" y1="137.583130" x2="241.463104" y2="217.302002" gradientUnits="userSpaceOnUse">
			<stop stop-color="#FFEFE0"></stop>
			<stop offset="1.000000" stop-color="#FFBE99"></stop>
		</linearGradient>
		<linearGradient id="paint_linear_1_516_0" x1="274.630920" y1="226.234512" x2="230.350037" y2="438.581238" gradientUnits="userSpaceOnUse">
			<stop offset="0.017178" stop-color="#FFFFFF"></stop>
			<stop offset="1.000000" stop-color="#D7D7D7"></stop>
		</linearGradient>
		<linearGradient id="paint_linear_9_138_0" x1="9.526522" y1="2.027946" x2="9.526522" y2="19.917534" gradientUnits="userSpaceOnUse">
			<stop stop-color="#FFE89E"></stop>
			<stop offset="1.000000" stop-color="#FFBF1A"></stop>
		</linearGradient>
		<linearGradient id="paint_linear_9_141_0" x1="6.341140" y1="1.349862" x2="6.341140" y2="13.257711" gradientUnits="userSpaceOnUse">
			<stop stop-color="#FFE89E"></stop>
			<stop offset="1.000000" stop-color="#FFBF1A"></stop>
		</linearGradient>
		<linearGradient id="paint_linear_9_144_0" x1="9.526522" y1="2.027946" x2="9.526522" y2="19.917534" gradientUnits="userSpaceOnUse">
			<stop stop-color="#FFE89E"></stop>
			<stop offset="1.000000" stop-color="#FFBF1A"></stop>
		</linearGradient>
		<linearGradient id="paint_linear_9_147_0" x1="14.015740" y1="2.983582" x2="14.015740" y2="29.303349" gradientUnits="userSpaceOnUse">
			<stop stop-color="#FFE89E"></stop>
			<stop offset="1.000000" stop-color="#FFBF1A"></stop>
		</linearGradient>
		<linearGradient id="paint_linear_11_15_0" x1="346.211273" y1="164.055038" x2="346.211273" y2="181.944641" gradientUnits="userSpaceOnUse">
			<stop stop-color="#FFE89E"></stop>
			<stop offset="1.000000" stop-color="#FFBF1A"></stop>
		</linearGradient>
		<linearGradient id="paint_linear_11_18_0" x1="373.652588" y1="143.574600" x2="373.652588" y2="155.482437" gradientUnits="userSpaceOnUse">
			<stop stop-color="#FFE89E"></stop>
			<stop offset="1.000000" stop-color="#FFBF1A"></stop>
		</linearGradient>
		<linearGradient id="paint_linear_11_21_0" x1="416.422089" y1="125.650749" x2="416.422089" y2="143.540344" gradientUnits="userSpaceOnUse">
			<stop stop-color="#FFE89E"></stop>
			<stop offset="1.000000" stop-color="#FFBF1A"></stop>
		</linearGradient>
		<linearGradient id="paint_linear_11_24_0" x1="411.932861" y1="201.248718" x2="411.932861" y2="227.568481" gradientUnits="userSpaceOnUse">
			<stop stop-color="#FFE89E"></stop>
			<stop offset="1.000000" stop-color="#FFBF1A"></stop>
		</linearGradient>
	</defs>
	<path d="M340.729 270.341L380.451 293.659L454 236.46C449.96 229.538 446.353 219.877 457.238 219.117C466.298 219.117 446.711 236.821 483.692 219.117C522.48 200.548 512.404 209.617 481.406 233.514C472.3 240.534 406.677 332.737 374.203 339.67C358.379 343.048 327.756 331.985 309.528 316.773L340.729 270.341Z" fill="url(#paint_linear_1_3_0)" fill-opacity="1.000000" fill-rule="evenodd" class="iuBENgSq_0"></path>
	<path d="M230.006 230.497C210.558 236.534 166.276 250.552 155.069 258.334C141.061 268.062 135.513 276.854 102.737 333.547L128.913 353.605L159.902 350.285L166.791 413.933L317.277 414.05C316.701 401.086 320.189 359.269 324.234 333.547C339.952 328.356 352.095 315.744 356.687 299.841L361.8 282.133C340.145 268.343 316.933 251.806 304.142 246.621C291.352 241.435 263.545 235.956 250.582 232.742L230.006 230.497Z" fill="url(#paint_linear_1_4_0)" fill-opacity="1.000000" fill-rule="evenodd" class="iuBENgSq_1"></path>
	<path d="M103.802 334.259C95.3485 350.218 64.3373 398.543 112.018 404.588C171.311 412.107 225.24 410.322 232.499 411.558L222.308 383.287L149.669 366.281L156.397 350.759L139.966 349.3C126.653 348.117 114.027 342.866 103.802 334.259Z" fill="url(#paint_linear_1_5_0)" fill-opacity="1.000000" fill-rule="evenodd" class="iuBENgSq_2"></path>
	<path d="M235.077 103.623C237.424 99.3796 244.154 93.4385 252.302 103.623L235.077 103.623Z" fill="#30235B" fill-opacity="1.000000" fill-rule="evenodd" class="iuBENgSq_3"></path>
	<path fill="#CF0606" fill-opacity="1.000000" d="M213.016188,249.005615A25.97249,18.508158 0,1,1 264.961168,249.005615A25.97249,18.508158 0,1,1 213.016188,249.005615" class="iuBENgSq_4"></path>
	<path d="M221.338 211.862L217.708 248.011C218.721 252.268 224.405 260.904 240.218 260.904C252.625 260.904 259.324 252.268 260.743 248.011L256.683 211.862L221.338 211.862Z" fill="url(#paint_linear_1_489_0)" fill-opacity="1.000000" fill-rule="evenodd" class="iuBENgSq_5"></path>
	<mask id="mask1_491" mask-type="alpha" maskUnits="userSpaceOnUse" x="217.707703" y="211.862305" width="43.043182" height="49.042969">
		<path d="M221.338 211.862L217.708 248.011C218.721 252.268 224.39 260.905 240.202 260.905C252.609 260.905 259.332 252.341 260.751 248.084L256.683 211.862L221.338 211.862Z" fill="url(#paint_linear_1_491_0)" fill-opacity="1.000000" fill-rule="evenodd" class="iuBENgSq_6"></path>
	</mask>
	<g mask="url(#mask1_491)">
		<g opacity="0.100000">
			<path d="M210.378 216.225C219.603 220.994 237.462 252.788 269.422 213.246L254.559 184.974L216.717 189.493L210.378 216.225Z" fill="#000000" fill-opacity="1.000000" fill-rule="evenodd" class="iuBENgSq_7"></path>
		</g>
	</g>
	<path d="M205.481 146.633C193.704 171.659 200.259 226.374 238.376 226.374C285.059 226.374 281.542 167.488 278.352 146.633C265.103 133.138 231.98 114.246 205.481 146.633Z" fill="url(#paint_linear_1_493_0)" fill-opacity="1.000000" fill-rule="evenodd" class="iuBENgSq_8"></path>
	<path d="M271.535 179.015L279.003 184.516L281.22 180.544L272.69 174.919L271.535 179.015Z" fill="#111111" fill-opacity="1.000000" fill-rule="evenodd" class="iuBENgSq_9"></path>
	<path d="M208.666 177.419L201.198 182.921L198.981 178.948L207.511 173.324L208.666 177.419Z" fill="#111111" fill-opacity="1.000000" fill-rule="evenodd" class="iuBENgSq_10"></path>
	<path d="M276.615 149.921C265.014 157.257 235.056 167.528 208.032 149.921C207.867 154.986 208.032 164.835 200.8 178.875C194.44 172.354 186.593 154.832 199.781 136.91C198.795 127.752 205.553 103.05 240.382 101.697C275.211 100.345 285.586 128.879 286.431 140.291C291.504 143.612 297.252 155.977 279.668 178.875C277.633 172.434 274.172 157.625 276.615 149.921Z" fill="#30235B" fill-opacity="1.000000" fill-rule="evenodd" class="iuBENgSq_11"></path>
	<g filter="url(#filter_1_497_dd)">
		<path d="M192.615 159.896C193.824 144.488 202.815 117.968 243.15 119.318C278.273 120.336 288.864 147.669 289.503 163.598C289.548 164.72 290.449 165.639 291.573 165.639C292.602 165.639 293.47 164.863 293.541 163.836C294.868 144.64 286.406 110.205 243.15 107.802C200.316 105.422 189.781 139.929 188.018 159.684C187.9 161 188.951 162.11 190.272 162.11C191.509 162.11 192.519 161.13 192.615 159.896Z" fill="#FFFFFF" fill-opacity="1.000000" fill-rule="evenodd" class="iuBENgSq_12"></path>
	</g>
	<g filter="url(#filter_1_498_dd)">
		<path width="5.475703" height="21.013050" transform="rotate(10.0542 294.348450 171.939087)" fill="#24C28A" fill-opacity="1.000000" d="M 296.34845,171.939087 L 297.824153,171.939087 A 2,2,0,0,1,299.824153,173.939087 L 299.824153,190.952137 A 2,2,0,0,1,297.824153,192.952137 L 296.34845,192.952137 A 2,2,0,0,1,294.34845,190.952137 L 294.34845,173.939087 A 2,2,0,0,1,296.34845,171.939087" class="iuBENgSq_13"></path>
	</g>
	<g filter="url(#filter_1_499_dd)">
		<path width="16.866760" height="43.773338" transform="rotate(10.0542 282.584290 158.316162)" fill="#FFFFFF" fill-opacity="1.000000" d="M 290.58429,158.316162 L 291.45105,158.316162 A 8,8,0,0,1,299.45105,166.316162 L 299.45105,194.0895 A 8,8,0,0,1,291.45105,202.0895 L 290.58429,202.0895 A 8,8,0,0,1,282.58429,194.0895 L 282.58429,166.316162 A 8,8,0,0,1,290.58429,158.316162" class="iuBENgSq_14"></path>
	</g>
	<g filter="url(#filter_1_500_dd)">
		<path width="5.475703" height="21.013050" transform="matrix(-0.984643 0.17458 0.17458 0.984643 185.438 171.939)" fill="#24C28A" fill-opacity="1.000000" d="M 2,0 L 3.475703,0 A 2,2,0,0,1,5.475703,2 L 5.475703,19.01305 A 2,2,0,0,1,3.475703,21.01305 L 2,21.01305 A 2,2,0,0,1,0,19.01305 L 0,2 A 2,2,0,0,1,2,0" class="iuBENgSq_15"></path>
	</g>
	<g filter="url(#filter_1_501_dd)">
		<path width="16.866760" height="43.773338" transform="matrix(-0.984643 0.17458 0.17458 0.984643 197.049 158.316)" fill="#FFFFFF" fill-opacity="1.000000" d="M 8,0 L 8.86676,0 A 8,8,0,0,1,16.86676,8 L 16.86676,35.773338 A 8,8,0,0,1,8.86676,43.773338 L 8,43.773338 A 8,8,0,0,1,0,35.773338 L 0,8 A 8,8,0,0,1,8,0" class="iuBENgSq_16"></path>
	</g>
	<mask id="mask1_503" mask-type="alpha" maskUnits="userSpaceOnUse" x="180.441711" y="158.316162" width="24.249664" height="46.045654">
		<g filter="url(#filter_1_503_dd)">
			<path width="16.866760" height="43.773338" transform="matrix(-0.984643 0.17458 0.17458 0.984643 197.049 158.316)" fill="#FFFFFF" fill-opacity="1.000000" d="M 8,0 L 8.86676,0 A 8,8,0,0,1,16.86676,8 L 16.86676,35.773338 A 8,8,0,0,1,8.86676,43.773338 L 8,43.773338 A 8,8,0,0,1,0,35.773338 L 0,8 A 8,8,0,0,1,8,0" class="iuBENgSq_17"></path>
		</g>
	</mask>
	<g mask="url(#mask1_503)">
		<path width="21.939873" height="47.516800" transform="rotate(-10.0977 189.106628 158.316162)" fill="#E8E8E8" fill-opacity="1.000000" d="M189.106628 158.316162 L211.046501 158.316162 L211.046501 205.832962 L189.106628 205.832962 Z" class="iuBENgSq_18"></path>
	</g>
	<mask id="mask1_506" mask-type="alpha" maskUnits="userSpaceOnUse" x="274.942322" y="158.316162" width="24.249664" height="46.045654">
		<g filter="url(#filter_1_506_dd)">
			<path width="16.866760" height="43.773338" transform="rotate(10.0542 282.584259 158.316162)" fill="#FFFFFF" fill-opacity="1.000000" d="M 290.584259,158.316162 L 291.451019,158.316162 A 8,8,0,0,1,299.451019,166.316162 L 299.451019,194.0895 A 8,8,0,0,1,291.451019,202.0895 L 290.584259,202.0895 A 8,8,0,0,1,282.584259,194.0895 L 282.584259,166.316162 A 8,8,0,0,1,290.584259,158.316162" class="iuBENgSq_19"></path>
		</g>
	</mask>
	<g mask="url(#mask1_506)">
		<path width="21.939873" height="47.516800" transform="matrix(-0.98451 -0.175326 -0.175326 0.98451 291.55 158.316)" fill="#E8E8E8" fill-opacity="1.000000" d="M0 0 L21.939873 0 L21.939873 47.5168 L0 47.5168 Z" class="iuBENgSq_20"></path>
	</g>
	<g opacity="0.500000">
		<path d="M213.153 184.76C213.843 186.657 216.559 190.907 221.951 190.907C231.164 190.907 235.097 182.213 231.164 176.312C227.23 170.412 216.001 171.577 213.612 175.753C211.733 179.038 212.36 183.173 213.153 184.76Z" fill="#E6FCFF" fill-opacity="1.000000" fill-rule="evenodd" class="iuBENgSq_21"></path>
	</g>
	<g opacity="0.500000">
		<path d="M266.48 184.76C265.79 186.657 263.075 190.907 257.682 190.907C248.47 190.907 244.537 182.213 248.47 176.312C252.403 170.412 263.633 171.577 266.022 175.753C267.901 179.038 267.274 183.173 266.48 184.76Z" fill="#E6FCFF" fill-opacity="1.000000" fill-rule="evenodd" class="iuBENgSq_22"></path>
	</g>
	<path d="M212.504 172.491C211.981 172.707 211.497 172.905 211.057 173.071L208.11 173.076C207.555 173.081 207.107 173.53 207.112 174.085L207.134 176.563C207.139 177.112 207.585 177.559 208.134 177.554L210.265 177.554C208.721 190.805 218.493 194.351 226.308 191.962C233.276 189.833 235.141 183.808 235.514 180.028C237.005 176.725 243.539 178.251 243.797 179.954C244.056 181.658 245.388 192.61 257.432 192.625C267.067 192.637 269.68 184.03 269.783 179.724L272.277 179.702C272.829 179.697 273.273 179.245 273.268 178.693L273.241 175.662C273.236 175.11 272.784 174.666 272.232 174.671L269.738 174.693C263.462 168.335 249.98 168.931 245.232 174.91C239.992 173.702 235.527 174.474 233.95 175.01C225.155 167.287 217.211 170.555 212.504 172.491ZM257.683 190.907C263.076 190.907 265.792 186.657 266.482 184.76C267.275 183.173 267.902 179.038 266.023 175.753C263.634 171.577 252.404 170.412 248.471 176.312C244.538 182.212 248.471 190.907 257.683 190.907ZM213.153 184.76C213.843 186.657 216.559 190.907 221.951 190.907C231.164 190.907 235.097 182.212 231.164 176.312C227.23 170.412 216.001 171.577 213.612 175.753C211.733 179.038 212.36 183.173 213.153 184.76Z" clip-rule="evenodd" fill="#111111" fill-opacity="1.000000" fill-rule="evenodd" class="iuBENgSq_23"></path>
	<path d="M164.608 407.683L319 407.683C319.971 407.683 320.758 408.47 320.758 409.441C320.758 412.353 318.397 414.715 315.484 414.715L169.631 414.715C166.302 414.715 163.603 412.016 163.603 408.687C163.603 408.132 164.053 407.683 164.608 407.683Z" fill="#B4B4B4" fill-opacity="1.000000" fill-rule="nonzero" class="iuBENgSq_24"></path>
	<path width="157.154526" height="105.146645" fill="url(#paint_linear_1_516_0)" fill-opacity="1.000000" d="M 165.603424,305.147339 L 318.75795,305.147339 A 2,2,0,0,1,320.75795,307.147339 L 320.75795,408.293984 A 2,2,0,0,1,318.75795,410.293984 L 165.603424,410.293984 A 2,2,0,0,1,163.603424,408.293984 L 163.603424,307.147339 A 2,2,0,0,1,165.603424,305.147339" class="iuBENgSq_25"></path>
	<path fill="#FFFFFF" fill-opacity="1.000000" d="M231.004143,357.720703A11.17646,11.17646 0,1,1 253.35706299999998,357.720703A11.17646,11.17646 0,1,1 231.004143,357.720703" class="iuBENgSq_26"></path>
	<path d="M130.517 169.875C130.717 166.467 131.396 163.613 131.963 162.027C133.075 164.809 133.625 167.48 133.811 169.915C136.247 170.101 138.918 170.651 141.7 171.764C140.114 172.331 137.26 173.01 133.851 173.209C133.661 176.828 132.731 179.64 131.963 181.08C131.028 178.463 130.602 175.772 130.49 173.236C127.955 173.125 125.263 172.699 122.647 171.764C124.087 170.996 126.898 170.065 130.517 169.875Z" clip-rule="evenodd" fill="url(#paint_linear_9_138_0)" fill-opacity="1.000000" fill-rule="evenodd" class="iuBENgSq_27"></path>
	<path d="M103.63 147.449C103.762 145.18 104.215 143.28 104.592 142.225C105.332 144.076 105.698 145.854 105.822 147.475C107.443 147.599 109.221 147.965 111.073 148.706C110.017 149.083 108.118 149.535 105.849 149.668C105.722 152.077 105.103 153.948 104.592 154.907C103.97 153.165 103.686 151.374 103.612 149.686C101.924 149.612 100.132 149.328 98.3906 148.706C99.3492 148.195 101.221 147.575 103.63 147.449Z" clip-rule="evenodd" fill="url(#paint_linear_9_141_0)" fill-opacity="1.000000" fill-rule="evenodd" class="iuBENgSq_28"></path>
	<path d="M60.3066 131.471C60.5059 128.062 61.1855 125.209 61.7519 123.623C62.8646 126.405 63.4147 129.075 63.6006 131.511C66.0362 131.697 68.707 132.247 71.4888 133.36C69.9028 133.926 67.0494 134.606 63.6407 134.805C63.4506 138.424 62.52 141.236 61.7519 142.676C60.8173 140.059 60.3908 137.367 60.2796 134.832C57.7444 134.721 55.0526 134.294 52.4357 133.36C53.8759 132.592 56.6877 131.661 60.3066 131.471Z" clip-rule="evenodd" fill="url(#paint_linear_9_144_0)" fill-opacity="1.000000" fill-rule="evenodd" class="iuBENgSq_29"></path>
	<path d="M64.0155 209.812C64.3087 204.797 65.3086 200.599 66.1419 198.265C67.7791 202.358 68.5883 206.287 68.8619 209.871C72.4452 210.144 76.3745 210.953 80.4672 212.591C78.1339 213.424 73.9358 214.424 68.9208 214.717C68.6411 220.041 67.272 224.178 66.1419 226.297C64.767 222.447 64.1395 218.487 63.9758 214.757C60.246 214.593 56.2858 213.966 52.4357 212.591C54.5546 211.461 58.6913 210.091 64.0155 209.812Z" clip-rule="evenodd" fill="url(#paint_linear_9_147_0)" fill-opacity="1.000000" fill-rule="evenodd" class="iuBENgSq_30"></path>
	<path fill="#2F235A" fill-opacity="1.000000" d="M92.64303100000001,180.157104A1.841405,1.841405 0,1,1 96.325841,180.157104A1.841405,1.841405 0,1,1 92.64303100000001,180.157104" class="iuBENgSq_31"></path>
	<path fill="#FE9076" fill-opacity="1.000000" d="M134.900935,127.359741A1.841405,1.841405 0,1,1 138.58374500000002,127.359741A1.841405,1.841405 0,1,1 134.900935,127.359741" class="iuBENgSq_32"></path>
	<path fill="#FFA400" fill-opacity="1.000000" d="M42.281276,172.84668A1.841405,1.841405 0,1,1 45.964086,172.84668A1.841405,1.841405 0,1,1 42.281276,172.84668" class="iuBENgSq_33"></path>
	<path fill="#23BB86" fill-opacity="1.000000" d="M124.80746,208.557495A1.841405,1.841405 0,1,1 128.49027,208.557495A1.841405,1.841405 0,1,1 124.80746,208.557495" class="iuBENgSq_34"></path>
	<path d="M132.231 119.675C128.067 113.957 116.34 101.744 102.737 98.6345" stroke="#FE9076" stroke-opacity="1.000000" stroke-width="1.602770" stroke-linecap="round" class="iuBENgSq_35"></path>
	<path d="M36.3533 167.911C30.2001 164.424 14.4754 158.145 0.802124 160.932" stroke="#FFA400" stroke-opacity="1.000000" stroke-width="1.602770" stroke-linecap="round" class="iuBENgSq_36"></path>
	<path d="M120.329 213.906C117.176 216.688 109.59 224.59 104.471 233.938" stroke="#23BB86" stroke-opacity="1.000000" stroke-width="1.602770" stroke-linecap="round" class="iuBENgSq_37"></path>
	<path d="M347.867 169.875C347.668 166.467 346.988 163.613 346.422 162.027C345.309 164.809 344.759 167.48 344.573 169.915C342.137 170.101 339.467 170.651 336.685 171.764C338.271 172.331 341.124 173.01 344.533 173.209C344.723 176.828 345.654 179.64 346.422 181.08C347.356 178.463 347.783 175.772 347.894 173.236C350.429 173.125 353.121 172.699 355.738 171.764C354.298 170.996 351.486 170.065 347.867 169.875Z" clip-rule="evenodd" fill="url(#paint_linear_11_15_0)" fill-opacity="1.000000" fill-rule="evenodd" class="iuBENgSq_38"></path>
	<path d="M374.755 147.449C374.622 145.18 374.17 143.28 373.793 142.225C373.052 144.076 372.686 145.854 372.562 147.475C370.941 147.599 369.163 147.965 367.311 148.706C368.367 149.083 370.266 149.535 372.535 149.668C372.662 152.077 373.281 153.948 373.793 154.907C374.415 153.165 374.699 151.374 374.773 149.686C376.46 149.612 378.252 149.328 379.994 148.706C379.035 148.195 377.164 147.575 374.755 147.449Z" clip-rule="evenodd" fill="url(#paint_linear_11_18_0)" fill-opacity="1.000000" fill-rule="evenodd" class="iuBENgSq_39"></path>
	<path d="M418.078 131.471C417.879 128.062 417.199 125.209 416.632 123.623C415.52 126.405 414.97 129.075 414.784 131.511C412.348 131.697 409.677 132.247 406.896 133.36C408.482 133.926 411.335 134.606 414.744 134.805C414.934 138.424 415.864 141.236 416.632 142.676C417.567 140.059 417.994 137.367 418.105 134.832C420.64 134.721 423.332 134.294 425.949 133.36C424.508 132.592 421.697 131.661 418.078 131.471Z" clip-rule="evenodd" fill="url(#paint_linear_11_21_0)" fill-opacity="1.000000" fill-rule="evenodd" class="iuBENgSq_40"></path>
	<path d="M414.369 209.812C414.076 204.797 413.076 200.599 412.242 198.265C410.605 202.358 409.796 206.287 409.522 209.871C405.939 210.144 402.01 210.953 397.917 212.591C400.25 213.424 404.449 214.424 409.464 214.717C409.743 220.041 411.112 224.178 412.242 226.297C413.617 222.447 414.245 218.487 414.409 214.757C418.138 214.593 422.099 213.966 425.949 212.591C423.83 211.461 419.693 210.091 414.369 209.812Z" clip-rule="evenodd" fill="url(#paint_linear_11_24_0)" fill-opacity="1.000000" fill-rule="evenodd" class="iuBENgSq_41"></path>
	<path transform="matrix(-1 1 0 0 383.9 180.157)" fill="#2F235A" fill-opacity="1.000000" d="M-1.841405,0A1.841405,1.841405 0,1,1 1.841405,0A1.841405,1.841405 0,1,1 -1.841405,0" class="iuBENgSq_42"></path>
	<path transform="matrix(-1 1 0 0 341.642 127.36)" fill="#FE9076" fill-opacity="1.000000" d="M-1.841405,0A1.841405,1.841405 0,1,1 1.841405,0A1.841405,1.841405 0,1,1 -1.841405,0" class="iuBENgSq_43"></path>
	<path transform="matrix(-1 1 0 0 434.262 172.847)" fill="#FFA400" fill-opacity="1.000000" d="M-1.841405,0A1.841405,1.841405 0,1,1 1.841405,0A1.841405,1.841405 0,1,1 -1.841405,0" class="iuBENgSq_44"></path>
	<path transform="matrix(-1 1 0 0 351.735 208.557)" fill="#23BB86" fill-opacity="1.000000" d="M-1.841405,0A1.841405,1.841405 0,1,1 1.841405,0A1.841405,1.841405 0,1,1 -1.841405,0" class="iuBENgSq_45"></path>
	<path d="M346.154 119.675C350.317 113.957 362.044 101.744 375.648 98.6345" stroke="#FE9076" stroke-opacity="1.000000" stroke-width="1.602770" stroke-linecap="round" class="iuBENgSq_46"></path>
	<path d="M442.031 167.911C448.184 164.424 463.909 158.145 477.582 160.932" stroke="#FFA400" stroke-opacity="1.000000" stroke-width="1.602770" stroke-linecap="round" class="iuBENgSq_47"></path>
	<path d="M358.055 213.906C361.208 216.688 368.794 224.59 373.913 233.938" stroke="#23BB86" stroke-opacity="1.000000" stroke-width="1.602770" stroke-linecap="round" class="iuBENgSq_48"></path>
	<path d="M269.228 56.1737C267.14 52.9484 262.914 54.7053 262.914 58.2189C262.914 60.8572 268.708 64.9844 269.228 65.521C269.752 64.9844 275.258 60.8572 275.258 58.2189C275.258 54.7321 271.32 52.9484 269.228 56.1737Z" fill="#FFBCBC" fill-opacity="1.000000" fill-rule="nonzero" class="iuBENgSq_49"></path>
	<path stroke="#F7F7F7" stroke-opacity="1.000000" stroke-width="0.649684" d="M255.28598,59.998779A13.799866,13.799866 0,1,1 282.885712,59.998779A13.799866,13.799866 0,1,1 255.28598,59.998779" class="iuBENgSq_50"></path>
	<path d="M219.705 36.9404C217.857 34.0859 214.117 35.641 214.117 38.7506C214.117 41.0856 219.245 44.7383 219.705 45.2133C220.169 44.7383 225.042 41.0856 225.042 38.7506C225.042 35.6646 221.557 34.0859 219.705 36.9404Z" fill="#FFBCBC" fill-opacity="1.000000" fill-rule="nonzero" class="iuBENgSq_51"></path>
	<path stroke="#F7F7F7" stroke-opacity="1.000000" stroke-width="0.574998" d="M207.365903,40.325806A12.213473,12.213473 0,1,1 231.792849,40.325806A12.213473,12.213473 0,1,1 207.365903,40.325806" class="iuBENgSq_52"></path>
	<path d="M252.388 15.9655C251.124 14.0131 248.566 15.0767 248.566 17.2034C248.566 18.8004 252.073 21.2986 252.388 21.6234C252.705 21.2986 256.038 18.8004 256.038 17.2034C256.038 15.0928 253.654 14.0131 252.388 15.9655Z" fill="#FFBCBC" fill-opacity="1.000000" fill-rule="nonzero" class="iuBENgSq_53"></path>
	<path stroke="#F7F7F7" stroke-opacity="1.000000" stroke-width="0.393259" d="M243.948397,18.280762A8.353178,8.353178 0,1,1 260.654753,18.280762A8.353178,8.353178 0,1,1 243.948397,18.280762" class="iuBENgSq_54"></path>
	<path d="M194.658 5.10132C193.624 3.50378 191.531 4.37402 191.531 6.11426C191.531 7.42102 194.4 9.46509 194.658 9.73083C194.918 9.46509 197.644 7.42102 197.644 6.11426C197.644 4.38721 195.694 3.50378 194.658 5.10132Z" fill="#FFBCBC" fill-opacity="1.000000" fill-rule="nonzero" class="iuBENgSq_55"></path>
	<path stroke="#F7F7F7" stroke-opacity="1.000000" stroke-width="0.321779" d="M187.75267300000002,6.995728A6.834882,6.834882 0,1,1 201.422437,6.995728A6.834882,6.834882 0,1,1 187.75267300000002,6.995728" class="iuBENgSq_56"></path>
	<path d="M189.571 79.9873C187.313 76.4995 182.743 78.3995 182.743 82.1989C182.743 85.0519 189.009 89.5148 189.571 90.0951C190.138 89.5148 196.092 85.0519 196.092 82.1989C196.092 78.4283 191.834 76.4995 189.571 79.9873Z" fill="#FFBCBC" fill-opacity="1.000000" fill-rule="nonzero" class="iuBENgSq_57"></path>
	<path stroke="#F7F7F7" stroke-opacity="1.000000" stroke-width="0.702541" d="M174.494843,84.123535A14.922607,14.922607 0,1,1 204.340057,84.123535A14.922607,14.922607 0,1,1 174.494843,84.123535" class="iuBENgSq_58"></path>
<style data-made-with="vivus-instant">.iuBENgSq_0{stroke-dasharray:539 541;stroke-dashoffset:540;animation:iuBENgSq_draw_0 2400ms ease-out 0ms infinite,iuBENgSq_fade 2400ms linear 0ms infinite;}.iuBENgSq_1{stroke-dasharray:743 745;stroke-dashoffset:744;animation:iuBENgSq_draw_1 2400ms ease-out 0ms infinite,iuBENgSq_fade 2400ms linear 0ms infinite;}.iuBENgSq_2{stroke-dasharray:389 391;stroke-dashoffset:390;animation:iuBENgSq_draw_2 2400ms ease-out 0ms infinite,iuBENgSq_fade 2400ms linear 0ms infinite;}.iuBENgSq_3{stroke-dasharray:39 41;stroke-dashoffset:40;animation:iuBENgSq_draw_3 2400ms ease-out 0ms infinite,iuBENgSq_fade 2400ms linear 0ms infinite;}.iuBENgSq_4{stroke-dasharray:141 143;stroke-dashoffset:142;animation:iuBENgSq_draw_4 2400ms ease-out 0ms infinite,iuBENgSq_fade 2400ms linear 0ms infinite;}.iuBENgSq_5{stroke-dasharray:162 164;stroke-dashoffset:163;animation:iuBENgSq_draw_5 2400ms ease-out 0ms infinite,iuBENgSq_fade 2400ms linear 0ms infinite;}.iuBENgSq_6{stroke-dasharray:162 164;stroke-dashoffset:163;animation:iuBENgSq_draw_6 2400ms ease-out 0ms infinite,iuBENgSq_fade 2400ms linear 0ms infinite;}.iuBENgSq_7{stroke-dasharray:169 171;stroke-dashoffset:170;animation:iuBENgSq_draw_7 2400ms ease-out 0ms infinite,iuBENgSq_fade 2400ms linear 0ms infinite;}.iuBENgSq_8{stroke-dasharray:287 289;stroke-dashoffset:288;animation:iuBENgSq_draw_8 2400ms ease-out 0ms infinite,iuBENgSq_fade 2400ms linear 0ms infinite;}.iuBENgSq_9{stroke-dasharray:29 31;stroke-dashoffset:30;animation:iuBENgSq_draw_9 2400ms ease-out 0ms infinite,iuBENgSq_fade 2400ms linear 0ms infinite;}.iuBENgSq_10{stroke-dasharray:29 31;stroke-dashoffset:30;animation:iuBENgSq_draw_10 2400ms ease-out 0ms infinite,iuBENgSq_fade 2400ms linear 0ms infinite;}.iuBENgSq_11{stroke-dasharray:348 350;stroke-dashoffset:349;animation:iuBENgSq_draw_11 2400ms ease-out 0ms infinite,iuBENgSq_fade 2400ms linear 0ms infinite;}.iuBENgSq_12{stroke-dasharray:328 330;stroke-dashoffset:329;animation:iuBENgSq_draw_12 2400ms ease-out 0ms infinite,iuBENgSq_fade 2400ms linear 0ms infinite;}.iuBENgSq_13{stroke-dasharray:50 52;stroke-dashoffset:51;animation:iuBENgSq_draw_13 2400ms ease-out 0ms infinite,iuBENgSq_fade 2400ms linear 0ms infinite;}.iuBENgSq_14{stroke-dasharray:108 110;stroke-dashoffset:109;animation:iuBENgSq_draw_14 2400ms ease-out 0ms infinite,iuBENgSq_fade 2400ms linear 0ms infinite;}.iuBENgSq_15{stroke-dasharray:50 52;stroke-dashoffset:51;animation:iuBENgSq_draw_15 2400ms ease-out 0ms infinite,iuBENgSq_fade 2400ms linear 0ms infinite;}.iuBENgSq_16{stroke-dasharray:108 110;stroke-dashoffset:109;animation:iuBENgSq_draw_16 2400ms ease-out 0ms infinite,iuBENgSq_fade 2400ms linear 0ms infinite;}.iuBENgSq_17{stroke-dasharray:108 110;stroke-dashoffset:109;animation:iuBENgSq_draw_17 2400ms ease-out 0ms infinite,iuBENgSq_fade 2400ms linear 0ms infinite;}.iuBENgSq_18{stroke-dasharray:139 141;stroke-dashoffset:140;animation:iuBENgSq_draw_18 2400ms ease-out 0ms infinite,iuBENgSq_fade 2400ms linear 0ms infinite;}.iuBENgSq_19{stroke-dasharray:108 110;stroke-dashoffset:109;animation:iuBENgSq_draw_19 2400ms ease-out 0ms infinite,iuBENgSq_fade 2400ms linear 0ms infinite;}.iuBENgSq_20{stroke-dasharray:139 141;stroke-dashoffset:140;animation:iuBENgSq_draw_20 2400ms ease-out 0ms infinite,iuBENgSq_fade 2400ms linear 0ms infinite;}.iuBENgSq_21{stroke-dasharray:62 64;stroke-dashoffset:63;animation:iuBENgSq_draw_21 2400ms ease-out 0ms infinite,iuBENgSq_fade 2400ms linear 0ms infinite;}.iuBENgSq_22{stroke-dasharray:62 64;stroke-dashoffset:63;animation:iuBENgSq_draw_22 2400ms ease-out 0ms infinite,iuBENgSq_fade 2400ms linear 0ms infinite;}.iuBENgSq_23{stroke-dasharray:302 304;stroke-dashoffset:303;animation:iuBENgSq_draw_23 2400ms ease-out 0ms infinite,iuBENgSq_fade 2400ms linear 0ms infinite;}.iuBENgSq_24{stroke-dasharray:323 325;stroke-dashoffset:324;animation:iuBENgSq_draw_24 2400ms ease-out 0ms infinite,iuBENgSq_fade 2400ms linear 0ms infinite;}.iuBENgSq_25{stroke-dasharray:522 524;stroke-dashoffset:523;animation:iuBENgSq_draw_25 2400ms ease-out 0ms infinite,iuBENgSq_fade 2400ms linear 0ms infinite;}.iuBENgSq_26{stroke-dasharray:71 73;stroke-dashoffset:72;animation:iuBENgSq_draw_26 2400ms ease-out 0ms infinite,iuBENgSq_fade 2400ms linear 0ms infinite;}.iuBENgSq_27{stroke-dasharray:65 67;stroke-dashoffset:66;animation:iuBENgSq_draw_27 2400ms ease-out 0ms infinite,iuBENgSq_fade 2400ms linear 0ms infinite;}.iuBENgSq_28{stroke-dasharray:43 45;stroke-dashoffset:44;animation:iuBENgSq_draw_28 2400ms ease-out 0ms infinite,iuBENgSq_fade 2400ms linear 0ms infinite;}.iuBENgSq_29{stroke-dasharray:65 67;stroke-dashoffset:66;animation:iuBENgSq_draw_29 2400ms ease-out 0ms infinite,iuBENgSq_fade 2400ms linear 0ms infinite;}.iuBENgSq_30{stroke-dasharray:96 98;stroke-dashoffset:97;animation:iuBENgSq_draw_30 2400ms ease-out 0ms infinite,iuBENgSq_fade 2400ms linear 0ms infinite;}.iuBENgSq_31{stroke-dasharray:12 14;stroke-dashoffset:13;animation:iuBENgSq_draw_31 2400ms ease-out 0ms infinite,iuBENgSq_fade 2400ms linear 0ms infinite;}.iuBENgSq_32{stroke-dasharray:12 14;stroke-dashoffset:13;animation:iuBENgSq_draw_32 2400ms ease-out 0ms infinite,iuBENgSq_fade 2400ms linear 0ms infinite;}.iuBENgSq_33{stroke-dasharray:12 14;stroke-dashoffset:13;animation:iuBENgSq_draw_33 2400ms ease-out 0ms infinite,iuBENgSq_fade 2400ms linear 0ms infinite;}.iuBENgSq_34{stroke-dasharray:12 14;stroke-dashoffset:13;animation:iuBENgSq_draw_34 2400ms ease-out 0ms infinite,iuBENgSq_fade 2400ms linear 0ms infinite;}.iuBENgSq_35{stroke-dasharray:37 39;stroke-dashoffset:38;animation:iuBENgSq_draw_35 2400ms ease-out 0ms infinite,iuBENgSq_fade 2400ms linear 0ms infinite;}.iuBENgSq_36{stroke-dasharray:37 39;stroke-dashoffset:38;animation:iuBENgSq_draw_36 2400ms ease-out 0ms infinite,iuBENgSq_fade 2400ms linear 0ms infinite;}.iuBENgSq_37{stroke-dasharray:26 28;stroke-dashoffset:27;animation:iuBENgSq_draw_37 2400ms ease-out 0ms infinite,iuBENgSq_fade 2400ms linear 0ms infinite;}.iuBENgSq_38{stroke-dasharray:65 67;stroke-dashoffset:66;animation:iuBENgSq_draw_38 2400ms ease-out 0ms infinite,iuBENgSq_fade 2400ms linear 0ms infinite;}.iuBENgSq_39{stroke-dasharray:43 45;stroke-dashoffset:44;animation:iuBENgSq_draw_39 2400ms ease-out 0ms infinite,iuBENgSq_fade 2400ms linear 0ms infinite;}.iuBENgSq_40{stroke-dasharray:65 67;stroke-dashoffset:66;animation:iuBENgSq_draw_40 2400ms ease-out 0ms infinite,iuBENgSq_fade 2400ms linear 0ms infinite;}.iuBENgSq_41{stroke-dasharray:96 98;stroke-dashoffset:97;animation:iuBENgSq_draw_41 2400ms ease-out 0ms infinite,iuBENgSq_fade 2400ms linear 0ms infinite;}.iuBENgSq_42{stroke-dasharray:12 14;stroke-dashoffset:13;animation:iuBENgSq_draw_42 2400ms ease-out 0ms infinite,iuBENgSq_fade 2400ms linear 0ms infinite;}.iuBENgSq_43{stroke-dasharray:12 14;stroke-dashoffset:13;animation:iuBENgSq_draw_43 2400ms ease-out 0ms infinite,iuBENgSq_fade 2400ms linear 0ms infinite;}.iuBENgSq_44{stroke-dasharray:12 14;stroke-dashoffset:13;animation:iuBENgSq_draw_44 2400ms ease-out 0ms infinite,iuBENgSq_fade 2400ms linear 0ms infinite;}.iuBENgSq_45{stroke-dasharray:12 14;stroke-dashoffset:13;animation:iuBENgSq_draw_45 2400ms ease-out 0ms infinite,iuBENgSq_fade 2400ms linear 0ms infinite;}.iuBENgSq_46{stroke-dasharray:37 39;stroke-dashoffset:38;animation:iuBENgSq_draw_46 2400ms ease-out 0ms infinite,iuBENgSq_fade 2400ms linear 0ms infinite;}.iuBENgSq_47{stroke-dasharray:37 39;stroke-dashoffset:38;animation:iuBENgSq_draw_47 2400ms ease-out 0ms infinite,iuBENgSq_fade 2400ms linear 0ms infinite;}.iuBENgSq_48{stroke-dasharray:26 28;stroke-dashoffset:27;animation:iuBENgSq_draw_48 2400ms ease-out 0ms infinite,iuBENgSq_fade 2400ms linear 0ms infinite;}.iuBENgSq_49{stroke-dasharray:38 40;stroke-dashoffset:39;animation:iuBENgSq_draw_49 2400ms ease-out 0ms infinite,iuBENgSq_fade 2400ms linear 0ms infinite;}.iuBENgSq_50{stroke-dasharray:87 89;stroke-dashoffset:88;animation:iuBENgSq_draw_50 2400ms ease-out 0ms infinite,iuBENgSq_fade 2400ms linear 0ms infinite;}.iuBENgSq_51{stroke-dasharray:34 36;stroke-dashoffset:35;animation:iuBENgSq_draw_51 2400ms ease-out 0ms infinite,iuBENgSq_fade 2400ms linear 0ms infinite;}.iuBENgSq_52{stroke-dasharray:77 79;stroke-dashoffset:78;animation:iuBENgSq_draw_52 2400ms ease-out 0ms infinite,iuBENgSq_fade 2400ms linear 0ms infinite;}.iuBENgSq_53{stroke-dasharray:23 25;stroke-dashoffset:24;animation:iuBENgSq_draw_53 2400ms ease-out 0ms infinite,iuBENgSq_fade 2400ms linear 0ms infinite;}.iuBENgSq_54{stroke-dasharray:53 55;stroke-dashoffset:54;animation:iuBENgSq_draw_54 2400ms ease-out 0ms infinite,iuBENgSq_fade 2400ms linear 0ms infinite;}.iuBENgSq_55{stroke-dasharray:19 21;stroke-dashoffset:20;animation:iuBENgSq_draw_55 2400ms ease-out 0ms infinite,iuBENgSq_fade 2400ms linear 0ms infinite;}.iuBENgSq_56{stroke-dasharray:43 45;stroke-dashoffset:44;animation:iuBENgSq_draw_56 2400ms ease-out 0ms infinite,iuBENgSq_fade 2400ms linear 0ms infinite;}.iuBENgSq_57{stroke-dasharray:41 43;stroke-dashoffset:42;animation:iuBENgSq_draw_57 2400ms ease-out 0ms infinite,iuBENgSq_fade 2400ms linear 0ms infinite;}.iuBENgSq_58{stroke-dasharray:94 96;stroke-dashoffset:95;animation:iuBENgSq_draw_58 2400ms ease-out 0ms infinite,iuBENgSq_fade 2400ms linear 0ms infinite;}@keyframes iuBENgSq_draw{100%{stroke-dashoffset:0;}}@keyframes iuBENgSq_fade{0%{stroke-opacity:1;}83.33333333333334%{stroke-opacity:1;}100%{stroke-opacity:0;}}@keyframes iuBENgSq_draw_0{0%{stroke-dashoffset: 540}55.55555555555556%{ stroke-dashoffset: 0;}100%{ stroke-dashoffset: 0;}}@keyframes iuBENgSq_draw_1{0.4789272030651341%{stroke-dashoffset: 744}56.0344827586207%{ stroke-dashoffset: 0;}100%{ stroke-dashoffset: 0;}}@keyframes iuBENgSq_draw_2{0.9578544061302682%{stroke-dashoffset: 390}56.51340996168584%{ stroke-dashoffset: 0;}100%{ stroke-dashoffset: 0;}}@keyframes iuBENgSq_draw_3{1.4367816091954022%{stroke-dashoffset: 40}56.99233716475097%{ stroke-dashoffset: 0;}100%{ stroke-dashoffset: 0;}}@keyframes iuBENgSq_draw_4{1.9157088122605364%{stroke-dashoffset: 142}57.4712643678161%{ stroke-dashoffset: 0;}100%{ stroke-dashoffset: 0;}}@keyframes iuBENgSq_draw_5{2.3946360153256707%{stroke-dashoffset: 163}57.95019157088122%{ stroke-dashoffset: 0;}100%{ stroke-dashoffset: 0;}}@keyframes iuBENgSq_draw_6{2.8735632183908044%{stroke-dashoffset: 163}58.429118773946364%{ stroke-dashoffset: 0;}100%{ stroke-dashoffset: 0;}}@keyframes iuBENgSq_draw_7{3.3524904214559386%{stroke-dashoffset: 170}58.908045977011504%{ stroke-dashoffset: 0;}100%{ stroke-dashoffset: 0;}}@keyframes iuBENgSq_draw_8{3.8314176245210727%{stroke-dashoffset: 288}59.38697318007664%{ stroke-dashoffset: 0;}100%{ stroke-dashoffset: 0;}}@keyframes iuBENgSq_draw_9{4.310344827586206%{stroke-dashoffset: 30}59.86590038314177%{ stroke-dashoffset: 0;}100%{ stroke-dashoffset: 0;}}@keyframes iuBENgSq_draw_10{4.789272030651341%{stroke-dashoffset: 30}60.3448275862069%{ stroke-dashoffset: 0;}100%{ stroke-dashoffset: 0;}}@keyframes iuBENgSq_draw_11{5.268199233716475%{stroke-dashoffset: 349}60.82375478927203%{ stroke-dashoffset: 0;}100%{ stroke-dashoffset: 0;}}@keyframes iuBENgSq_draw_12{5.747126436781609%{stroke-dashoffset: 329}61.30268199233717%{ stroke-dashoffset: 0;}100%{ stroke-dashoffset: 0;}}@keyframes iuBENgSq_draw_13{6.226053639846743%{stroke-dashoffset: 51}61.78160919540231%{ stroke-dashoffset: 0;}100%{ stroke-dashoffset: 0;}}@keyframes iuBENgSq_draw_14{6.704980842911877%{stroke-dashoffset: 109}62.26053639846744%{ stroke-dashoffset: 0;}100%{ stroke-dashoffset: 0;}}@keyframes iuBENgSq_draw_15{7.183908045977011%{stroke-dashoffset: 51}62.73946360153258%{ stroke-dashoffset: 0;}100%{ stroke-dashoffset: 0;}}@keyframes iuBENgSq_draw_16{7.662835249042145%{stroke-dashoffset: 109}63.2183908045977%{ stroke-dashoffset: 0;}100%{ stroke-dashoffset: 0;}}@keyframes iuBENgSq_draw_17{8.14176245210728%{stroke-dashoffset: 109}63.69731800766284%{ stroke-dashoffset: 0;}100%{ stroke-dashoffset: 0;}}@keyframes iuBENgSq_draw_18{8.620689655172413%{stroke-dashoffset: 140}64.17624521072798%{ stroke-dashoffset: 0;}100%{ stroke-dashoffset: 0;}}@keyframes iuBENgSq_draw_19{9.099616858237546%{stroke-dashoffset: 109}64.65517241379311%{ stroke-dashoffset: 0;}100%{ stroke-dashoffset: 0;}}@keyframes iuBENgSq_draw_20{9.578544061302683%{stroke-dashoffset: 140}65.13409961685824%{ stroke-dashoffset: 0;}100%{ stroke-dashoffset: 0;}}@keyframes iuBENgSq_draw_21{10.057471264367814%{stroke-dashoffset: 63}65.61302681992338%{ stroke-dashoffset: 0;}100%{ stroke-dashoffset: 0;}}@keyframes iuBENgSq_draw_22{10.53639846743295%{stroke-dashoffset: 63}66.0919540229885%{ stroke-dashoffset: 0;}100%{ stroke-dashoffset: 0;}}@keyframes iuBENgSq_draw_23{11.015325670498084%{stroke-dashoffset: 303}66.57088122605364%{ stroke-dashoffset: 0;}100%{ stroke-dashoffset: 0;}}@keyframes iuBENgSq_draw_24{11.494252873563218%{stroke-dashoffset: 324}67.04980842911877%{ stroke-dashoffset: 0;}100%{ stroke-dashoffset: 0;}}@keyframes iuBENgSq_draw_25{11.973180076628353%{stroke-dashoffset: 523}67.52873563218391%{ stroke-dashoffset: 0;}100%{ stroke-dashoffset: 0;}}@keyframes iuBENgSq_draw_26{12.452107279693486%{stroke-dashoffset: 72}68.00766283524905%{ stroke-dashoffset: 0;}100%{ stroke-dashoffset: 0;}}@keyframes iuBENgSq_draw_27{12.93103448275862%{stroke-dashoffset: 66}68.48659003831419%{ stroke-dashoffset: 0;}100%{ stroke-dashoffset: 0;}}@keyframes iuBENgSq_draw_28{13.409961685823754%{stroke-dashoffset: 44}68.96551724137933%{ stroke-dashoffset: 0;}100%{ stroke-dashoffset: 0;}}@keyframes iuBENgSq_draw_29{13.888888888888888%{stroke-dashoffset: 66}69.44444444444446%{ stroke-dashoffset: 0;}100%{ stroke-dashoffset: 0;}}@keyframes iuBENgSq_draw_30{14.367816091954023%{stroke-dashoffset: 97}69.92337164750958%{ stroke-dashoffset: 0;}100%{ stroke-dashoffset: 0;}}@keyframes iuBENgSq_draw_31{14.846743295019158%{stroke-dashoffset: 13}70.40229885057472%{ stroke-dashoffset: 0;}100%{ stroke-dashoffset: 0;}}@keyframes iuBENgSq_draw_32{15.32567049808429%{stroke-dashoffset: 13}70.88122605363985%{ stroke-dashoffset: 0;}100%{ stroke-dashoffset: 0;}}@keyframes iuBENgSq_draw_33{15.804597701149422%{stroke-dashoffset: 13}71.36015325670499%{ stroke-dashoffset: 0;}100%{ stroke-dashoffset: 0;}}@keyframes iuBENgSq_draw_34{16.28352490421456%{stroke-dashoffset: 13}71.83908045977012%{ stroke-dashoffset: 0;}100%{ stroke-dashoffset: 0;}}@keyframes iuBENgSq_draw_35{16.762452107279692%{stroke-dashoffset: 38}72.31800766283524%{ stroke-dashoffset: 0;}100%{ stroke-dashoffset: 0;}}@keyframes iuBENgSq_draw_36{17.241379310344826%{stroke-dashoffset: 38}72.79693486590038%{ stroke-dashoffset: 0;}100%{ stroke-dashoffset: 0;}}@keyframes iuBENgSq_draw_37{17.720306513409962%{stroke-dashoffset: 27}73.27586206896552%{ stroke-dashoffset: 0;}100%{ stroke-dashoffset: 0;}}@keyframes iuBENgSq_draw_38{18.199233716475092%{stroke-dashoffset: 66}73.75478927203066%{ stroke-dashoffset: 0;}100%{ stroke-dashoffset: 0;}}@keyframes iuBENgSq_draw_39{18.678160919540225%{stroke-dashoffset: 44}74.23371647509579%{ stroke-dashoffset: 0;}100%{ stroke-dashoffset: 0;}}@keyframes iuBENgSq_draw_40{19.157088122605366%{stroke-dashoffset: 66}74.71264367816093%{ stroke-dashoffset: 0;}100%{ stroke-dashoffset: 0;}}@keyframes iuBENgSq_draw_41{19.6360153256705%{stroke-dashoffset: 97}75.19157088122606%{ stroke-dashoffset: 0;}100%{ stroke-dashoffset: 0;}}@keyframes iuBENgSq_draw_42{20.11494252873563%{stroke-dashoffset: 13}75.6704980842912%{ stroke-dashoffset: 0;}100%{ stroke-dashoffset: 0;}}@keyframes iuBENgSq_draw_43{20.593869731800766%{stroke-dashoffset: 13}76.14942528735634%{ stroke-dashoffset: 0;}100%{ stroke-dashoffset: 0;}}@keyframes iuBENgSq_draw_44{21.0727969348659%{stroke-dashoffset: 13}76.62835249042146%{ stroke-dashoffset: 0;}100%{ stroke-dashoffset: 0;}}@keyframes iuBENgSq_draw_45{21.551724137931032%{stroke-dashoffset: 13}77.10727969348659%{ stroke-dashoffset: 0;}100%{ stroke-dashoffset: 0;}}@keyframes iuBENgSq_draw_46{22.03065134099617%{stroke-dashoffset: 38}77.58620689655173%{ stroke-dashoffset: 0;}100%{ stroke-dashoffset: 0;}}@keyframes iuBENgSq_draw_47{22.509578544061306%{stroke-dashoffset: 38}78.06513409961686%{ stroke-dashoffset: 0;}100%{ stroke-dashoffset: 0;}}@keyframes iuBENgSq_draw_48{22.988505747126435%{stroke-dashoffset: 27}78.544061302682%{ stroke-dashoffset: 0;}100%{ stroke-dashoffset: 0;}}@keyframes iuBENgSq_draw_49{23.46743295019157%{stroke-dashoffset: 39}79.02298850574712%{ stroke-dashoffset: 0;}100%{ stroke-dashoffset: 0;}}@keyframes iuBENgSq_draw_50{23.946360153256705%{stroke-dashoffset: 88}79.50191570881226%{ stroke-dashoffset: 0;}100%{ stroke-dashoffset: 0;}}@keyframes iuBENgSq_draw_51{24.42528735632184%{stroke-dashoffset: 35}79.9808429118774%{ stroke-dashoffset: 0;}100%{ stroke-dashoffset: 0;}}@keyframes iuBENgSq_draw_52{24.904214559386972%{stroke-dashoffset: 78}80.45977011494254%{ stroke-dashoffset: 0;}100%{ stroke-dashoffset: 0;}}@keyframes iuBENgSq_draw_53{25.383141762452105%{stroke-dashoffset: 24}80.93869731800768%{ stroke-dashoffset: 0;}100%{ stroke-dashoffset: 0;}}@keyframes iuBENgSq_draw_54{25.86206896551724%{stroke-dashoffset: 54}81.4176245210728%{ stroke-dashoffset: 0;}100%{ stroke-dashoffset: 0;}}@keyframes iuBENgSq_draw_55{26.340996168582375%{stroke-dashoffset: 20}81.89655172413794%{ stroke-dashoffset: 0;}100%{ stroke-dashoffset: 0;}}@keyframes iuBENgSq_draw_56{26.81992337164751%{stroke-dashoffset: 44}82.37547892720308%{ stroke-dashoffset: 0;}100%{ stroke-dashoffset: 0;}}@keyframes iuBENgSq_draw_57{27.29885057471264%{stroke-dashoffset: 42}82.8544061302682%{ stroke-dashoffset: 0;}100%{ stroke-dashoffset: 0;}}@keyframes iuBENgSq_draw_58{27.777777777777775%{stroke-dashoffset: 95}83.33333333333334%{ stroke-dashoffset: 0;}100%{ stroke-dashoffset: 0;}}</style></svg>
