<svg width="30.000000" height="30.000000" viewBox="0 0 30 30" fill="none" xmlns="http://www.w3.org/2000/svg" xmlns:xlink="http://www.w3.org/1999/xlink">
	<desc>
			Created with Pixso.
	</desc>
	<defs>
		<clipPath id="clip1_109">
			<rect width="30.000000" height="30.000000" fill="white" fill-opacity="0"/>
		</clipPath>
	</defs>
	<rect width="30.000000" height="30.000000" fill="#FFFFFF" fill-opacity="0"/>
	<g clip-path="url(#clip1_109)">
		<path d="M23.75 13.75L8.92499 13.75L13.4625 8.30005C13.6747 8.0448 13.7768 7.7157 13.7463 7.38525C13.7158 7.05469 13.5553 6.74976 13.3 6.5376C13.0447 6.32544 12.7156 6.22339 12.3851 6.25378C12.0546 6.2843 11.7497 6.44482 11.5375 6.70007L5.28751 14.2002C5.24545 14.2598 5.20786 14.3225 5.17499 14.3877C5.17499 14.4502 5.17499 14.4875 5.08749 14.55C5.03085 14.6934 5.00119 14.8459 5 15C5.00119 15.1543 5.03085 15.3069 5.08749 15.4502C5.08749 15.5127 5.08749 15.55 5.17499 15.6125C5.20786 15.6777 5.24545 15.7405 5.28751 15.8L11.5375 23.3C11.655 23.4412 11.8022 23.5547 11.9686 23.6326C12.1349 23.7102 12.3164 23.7505 12.5 23.75C12.7921 23.7507 13.0751 23.6489 13.3 23.4626C13.4266 23.3577 13.5312 23.2288 13.6079 23.0833C13.6846 22.938 13.7318 22.7788 13.7469 22.615C13.762 22.4514 13.7447 22.2861 13.6959 22.1292C13.6471 21.9722 13.5677 21.8264 13.4625 21.7002L8.92499 16.25L23.75 16.25C24.0815 16.25 24.3995 16.1184 24.6339 15.884C24.8683 15.6497 25 15.3315 25 15C25 14.6687 24.8683 14.3506 24.6339 14.1162C24.3995 13.8818 24.0815 13.75 23.75 13.75Z" fill="#F53838" fill-opacity="1.000000" fill-rule="nonzero"/>
	</g>
</svg>
