<svg width="20.000000" height="17.501465" viewBox="0 0 20 17.5015" fill="none" xmlns="http://www.w3.org/2000/svg" xmlns:xlink="http://www.w3.org/1999/xlink">
	<desc>
			Created with Pixso.
	</desc>
	<defs/>
	<path id="Vector" d="M1.25 7.50146L16.075 7.50146L11.5375 2.05151C11.3253 1.79626 11.2232 1.46716 11.2537 1.13672C11.2842 0.806152 11.4447 0.501221 11.7 0.289062C11.9553 0.0769043 12.2844 -0.0251465 12.6149 0.00524902C12.9454 0.0357666 13.2503 0.196289 13.4625 0.451538L19.7125 7.95166C19.7545 8.01123 19.7921 8.07397 19.825 8.13916C19.825 8.20166 19.825 8.23901 19.9125 8.30151C19.9691 8.44482 19.9988 8.59741 20 8.75146C19.9988 8.90576 19.9691 9.05835 19.9125 9.20166C19.9125 9.26416 19.9125 9.30151 19.825 9.36401C19.7921 9.4292 19.7545 9.49194 19.7125 9.55151L13.4625 17.0515C13.345 17.1926 13.1978 17.3062 13.0314 17.384C12.8651 17.4617 12.6836 17.502 12.5 17.5015C12.2079 17.5022 11.9249 17.4004 11.7 17.2141C11.5734 17.1091 11.4688 16.9802 11.3921 16.8347C11.3154 16.6895 11.2682 16.5303 11.2531 16.3665C11.238 16.2029 11.2553 16.0376 11.3041 15.8806C11.3529 15.7236 11.4323 15.5779 11.5375 15.4517L16.075 10.0015L1.25 10.0015C0.918488 10.0015 0.600525 9.86987 0.366119 9.6355C0.131683 9.40112 0 9.08301 0 8.75146C0 8.42017 0.131683 8.10205 0.366119 7.86768C0.600525 7.6333 0.918488 7.50146 1.25 7.50146Z" fill="#FFFFFF" fill-opacity="1.000000" fill-rule="nonzero"/>
</svg>
