<svg width="45.000000" height="15.000000" viewBox="0 0 45 15" fill="none" xmlns="http://www.w3.org/2000/svg" xmlns:xlink="http://www.w3.org/1999/xlink">
	<desc>
			Created with Pixso.
	</desc>
	<defs/>
	<path d="M7.44269 14.9998C7.46173 15 7.4809 15 7.5 15C7.5191 15 7.53827 15 7.55731 14.9998L37.0841 14.9998L37.0841 14.9888C37.2218 14.9961 37.3604 15 37.5 15C41.6422 15 45 11.6421 45 7.5C45 3.35791 41.6422 0 37.5 0C37.3604 0 37.2218 0.00378418 37.0841 0.0113525L37.0841 0L6.9469 0L6.9469 0.0201416C3.06305 0.303223 0 3.54395 0 7.5C0 11.4561 3.06305 14.6968 6.9469 14.98L6.9469 14.9998L7.44269 14.9998Z" clip-rule="evenodd" fill="#F53838" fill-opacity="1.000000" fill-rule="evenodd"/>
</svg>
